<?xml version="1.0" encoding="UTF-8"?>
<svg xmlns="http://www.w3.org/2000/svg" xmlns:xlink="http://www.w3.org/1999/xlink" width="10px" height="10px" viewBox="0 0 10 10" version="1.1">
<defs>
<clipPath id="clip1">
  <path d="M 2.199219 0.667969 L 7.777344 0.667969 L 7.777344 6.667969 L 2.199219 6.667969 Z M 2.199219 0.667969 "/>
</clipPath>
</defs>
<g id="surface1">
<path style=" stroke:none;fill-rule:nonzero;fill:rgb(47.058824%,86.27451%,100%);fill-opacity:1;" d="M 5 1.820312 C 4.96875 1.820312 4.941406 1.824219 4.910156 1.824219 C 4.882812 1.828125 4.855469 1.832031 4.824219 1.839844 C 4.796875 1.84375 4.769531 1.851562 4.742188 1.859375 C 4.714844 1.867188 4.6875 1.878906 4.660156 1.886719 C 4.632812 1.898438 4.605469 1.910156 4.578125 1.925781 C 4.554688 1.9375 4.527344 1.953125 4.503906 1.96875 C 4.480469 1.984375 4.457031 2 4.433594 2.019531 C 4.410156 2.035156 4.390625 2.054688 4.367188 2.078125 C 4.347656 2.097656 4.328125 2.117188 4.308594 2.140625 C 4.289062 2.160156 4.269531 2.183594 4.253906 2.207031 C 4.238281 2.230469 4.222656 2.257812 4.207031 2.28125 C 4.195312 2.308594 4.179688 2.332031 4.167969 2.359375 C 4.15625 2.386719 4.144531 2.414062 4.136719 2.441406 C 4.128906 2.46875 4.121094 2.496094 4.113281 2.523438 C 4.105469 2.550781 4.101562 2.582031 4.097656 2.609375 C 4.09375 2.636719 4.089844 2.667969 4.089844 2.695312 L 5.910156 2.695312 C 5.90625 2.667969 5.90625 2.636719 5.902344 2.609375 C 5.898438 2.582031 5.890625 2.550781 5.886719 2.523438 C 5.878906 2.496094 5.871094 2.46875 5.859375 2.441406 C 5.851562 2.414062 5.839844 2.386719 5.828125 2.359375 C 5.816406 2.332031 5.804688 2.308594 5.789062 2.28125 C 5.773438 2.257812 5.757812 2.230469 5.742188 2.207031 C 5.726562 2.183594 5.707031 2.160156 5.6875 2.140625 C 5.671875 2.117188 5.648438 2.097656 5.628906 2.078125 C 5.609375 2.054688 5.585938 2.035156 5.5625 2.019531 C 5.539062 2 5.515625 1.984375 5.492188 1.96875 C 5.46875 1.953125 5.445312 1.9375 5.417969 1.925781 C 5.390625 1.910156 5.367188 1.898438 5.339844 1.886719 C 5.3125 1.878906 5.285156 1.867188 5.257812 1.859375 C 5.226562 1.851562 5.199219 1.84375 5.171875 1.839844 C 5.144531 1.832031 5.113281 1.828125 5.085938 1.824219 C 5.058594 1.824219 5.027344 1.820312 5 1.820312 Z M 5 1.820312 "/>
<path style=" stroke:none;fill-rule:nonzero;fill:rgb(100%,100%,100%);fill-opacity:1;" d="M 5 3.644531 C 5.027344 3.644531 5.058594 3.640625 5.085938 3.640625 C 5.113281 3.636719 5.144531 3.632812 5.171875 3.628906 C 5.199219 3.621094 5.230469 3.613281 5.257812 3.605469 C 5.285156 3.597656 5.3125 3.589844 5.339844 3.578125 C 5.367188 3.566406 5.390625 3.554688 5.417969 3.542969 C 5.445312 3.527344 5.46875 3.511719 5.492188 3.496094 C 5.515625 3.480469 5.539062 3.464844 5.5625 3.445312 C 5.585938 3.429688 5.609375 3.410156 5.628906 3.390625 C 5.648438 3.371094 5.671875 3.347656 5.6875 3.324219 C 5.707031 3.304688 5.726562 3.28125 5.742188 3.257812 C 5.757812 3.234375 5.773438 3.210938 5.789062 3.183594 C 5.804688 3.160156 5.816406 3.132812 5.828125 3.105469 C 5.839844 3.078125 5.851562 3.054688 5.859375 3.027344 C 5.871094 2.996094 5.878906 2.96875 5.886719 2.941406 C 5.890625 2.914062 5.898438 2.886719 5.902344 2.855469 C 5.90625 2.828125 5.90625 2.796875 5.910156 2.769531 L 4.089844 2.769531 C 4.089844 2.796875 4.09375 2.828125 4.097656 2.855469 C 4.101562 2.886719 4.105469 2.914062 4.113281 2.941406 C 4.121094 2.96875 4.128906 2.996094 4.136719 3.023438 C 4.144531 3.054688 4.15625 3.078125 4.167969 3.105469 C 4.179688 3.132812 4.195312 3.160156 4.207031 3.183594 C 4.222656 3.210938 4.238281 3.234375 4.253906 3.257812 C 4.273438 3.28125 4.289062 3.304688 4.308594 3.324219 C 4.328125 3.347656 4.347656 3.367188 4.367188 3.390625 C 4.390625 3.410156 4.410156 3.429688 4.433594 3.445312 C 4.457031 3.464844 4.480469 3.480469 4.503906 3.496094 C 4.527344 3.511719 4.554688 3.527344 4.578125 3.542969 C 4.605469 3.554688 4.632812 3.566406 4.660156 3.578125 C 4.6875 3.589844 4.714844 3.597656 4.742188 3.605469 C 4.769531 3.613281 4.796875 3.621094 4.824219 3.625 C 4.855469 3.632812 4.882812 3.636719 4.910156 3.640625 C 4.941406 3.640625 4.96875 3.644531 5 3.644531 Z M 5 3.644531 "/>
<path style=" stroke:none;fill-rule:nonzero;fill:rgb(96.862745%,58.039216%,11.372549%);fill-opacity:1;" d="M 3.519531 1.339844 C 3.53125 1.328125 3.546875 1.316406 3.5625 1.308594 C 3.488281 1.246094 3.425781 1.171875 3.375 1.085938 C 3.324219 1.003906 3.289062 0.914062 3.265625 0.820312 C 3.261719 0.804688 3.257812 0.789062 3.246094 0.777344 C 3.234375 0.765625 3.222656 0.757812 3.207031 0.753906 C 3.191406 0.746094 3.175781 0.746094 3.164062 0.75 C 3.148438 0.753906 3.132812 0.757812 3.121094 0.769531 C 2.914062 0.941406 2.636719 1.316406 3.042969 1.941406 C 3.09375 1.824219 3.160156 1.714844 3.242188 1.609375 C 3.324219 1.507812 3.414062 1.417969 3.519531 1.339844 Z M 3.519531 1.339844 "/>
<path style=" stroke:none;fill-rule:nonzero;fill:rgb(100%,100%,100%);fill-opacity:1;" d="M 5.511719 4.25 C 5.601562 4.230469 5.636719 3.984375 5.640625 3.859375 C 5.605469 3.867188 5.570312 3.875 5.542969 3.882812 C 5.5 3.898438 5.460938 3.910156 5.421875 3.917969 C 5.417969 4.027344 5.433594 4.199219 5.484375 4.242188 C 5.492188 4.25 5.503906 4.25 5.511719 4.25 Z M 5.511719 4.25 "/>
<path style=" stroke:none;fill-rule:nonzero;fill:rgb(96.862745%,58.039216%,11.372549%);fill-opacity:1;" d="M 4.410156 5.996094 C 4.417969 6.03125 4.417969 6.070312 4.414062 6.105469 C 4.414062 6.117188 4.410156 6.125 4.402344 6.132812 C 4.394531 6.136719 4.386719 6.140625 4.375 6.140625 C 4.363281 6.140625 4.355469 6.136719 4.351562 6.125 C 4.34375 6.117188 4.339844 6.109375 4.339844 6.101562 C 4.339844 6.097656 4.359375 5.863281 4.21875 5.703125 C 4.125 5.605469 3.992188 5.550781 3.8125 5.550781 L 3.800781 5.550781 C 3.53125 5.550781 3.398438 5.6875 3.335938 5.804688 C 3.222656 6.015625 3.25 6.269531 3.316406 6.363281 C 3.339844 6.402344 3.367188 6.4375 3.398438 6.46875 C 3.429688 6.5 3.464844 6.527344 3.507812 6.542969 C 3.546875 6.5625 3.589844 6.570312 3.636719 6.570312 L 4.40625 6.570312 C 4.425781 6.570312 4.449219 6.566406 4.46875 6.5625 C 4.492188 6.558594 4.511719 6.554688 4.53125 6.546875 C 4.550781 6.535156 4.570312 6.527344 4.589844 6.515625 C 4.605469 6.503906 4.625 6.488281 4.640625 6.472656 C 4.652344 6.457031 4.667969 6.441406 4.679688 6.421875 C 4.691406 6.40625 4.703125 6.386719 4.710938 6.367188 C 4.71875 6.347656 4.726562 6.324219 4.730469 6.304688 C 4.734375 6.28125 4.734375 6.261719 4.734375 6.238281 L 4.734375 6.03125 C 4.734375 6.027344 4.734375 6.023438 4.738281 6.019531 L 4.710938 6.019531 C 4.609375 6.019531 4.511719 6.011719 4.410156 5.996094 Z M 4.410156 5.996094 "/>
<path style=" stroke:none;fill-rule:nonzero;fill:rgb(96.862745%,58.039216%,11.372549%);fill-opacity:1;" d="M 5.734375 5.703125 C 5.589844 5.863281 5.609375 6.097656 5.609375 6.101562 C 5.613281 6.109375 5.609375 6.117188 5.601562 6.125 C 5.597656 6.132812 5.585938 6.136719 5.578125 6.136719 C 5.566406 6.140625 5.558594 6.136719 5.550781 6.128906 C 5.542969 6.125 5.539062 6.117188 5.539062 6.105469 C 5.535156 6.070312 5.535156 6.035156 5.539062 6 C 5.453125 6.015625 5.367188 6.019531 5.277344 6.019531 L 5.214844 6.019531 C 5.214844 6.023438 5.21875 6.027344 5.21875 6.03125 L 5.21875 6.238281 C 5.21875 6.261719 5.21875 6.28125 5.222656 6.304688 C 5.226562 6.324219 5.234375 6.347656 5.242188 6.367188 C 5.25 6.386719 5.261719 6.40625 5.273438 6.421875 C 5.285156 6.441406 5.296875 6.457031 5.3125 6.472656 C 5.328125 6.488281 5.347656 6.503906 5.363281 6.515625 C 5.382812 6.527344 5.402344 6.535156 5.421875 6.546875 C 5.441406 6.554688 5.460938 6.558594 5.484375 6.5625 C 5.503906 6.566406 5.527344 6.570312 5.546875 6.570312 L 6.316406 6.570312 C 6.359375 6.570312 6.402344 6.5625 6.445312 6.542969 C 6.488281 6.527344 6.523438 6.5 6.554688 6.46875 C 6.585938 6.4375 6.613281 6.402344 6.636719 6.363281 C 6.703125 6.269531 6.730469 6.015625 6.617188 5.804688 C 6.550781 5.6875 6.417969 5.546875 6.140625 5.550781 C 5.960938 5.550781 5.828125 5.605469 5.734375 5.703125 Z M 5.734375 5.703125 "/>
<path style=" stroke:none;fill-rule:nonzero;fill:rgb(0%,36.470588%,44.705882%);fill-opacity:1;" d="M 6.117188 3.921875 C 6 3.839844 5.847656 3.828125 5.714844 3.847656 C 5.714844 3.847656 5.714844 3.847656 5.714844 3.851562 C 5.710938 3.894531 5.703125 4.285156 5.527344 4.320312 C 5.519531 4.320312 5.511719 4.320312 5.503906 4.324219 C 5.480469 4.324219 5.457031 4.3125 5.4375 4.296875 C 5.359375 4.230469 5.347656 4.023438 5.347656 3.933594 C 5.136719 3.980469 4.949219 3.980469 4.589844 3.925781 C 4.59375 4.007812 4.585938 4.226562 4.503906 4.296875 C 4.484375 4.3125 4.460938 4.324219 4.4375 4.324219 C 4.429688 4.320312 4.421875 4.320312 4.414062 4.320312 C 4.25 4.285156 4.230469 3.949219 4.226562 3.863281 L 4.222656 3.863281 C 4.179688 3.855469 4.136719 3.851562 4.089844 3.851562 C 3.875 3.851562 3.738281 3.96875 3.6875 4.199219 C 3.617188 4.492188 3.753906 4.804688 4.023438 4.96875 C 4.289062 5.136719 4.644531 5.222656 5.046875 5.21875 C 5.554688 5.214844 5.953125 5.085938 6.164062 4.855469 C 6.289062 4.71875 6.34375 4.554688 6.328125 4.363281 C 6.3125 4.15625 6.242188 4.003906 6.117188 3.921875 Z M 6.117188 3.921875 "/>
<path style=" stroke:none;fill-rule:nonzero;fill:rgb(47.058824%,86.27451%,100%);fill-opacity:1;" d="M 7.671875 3.734375 C 7.671875 2.855469 7.117188 2.65625 7.050781 2.636719 C 7.042969 2.636719 7.035156 2.632812 7.027344 2.625 C 7.023438 2.617188 7.019531 2.609375 7.019531 2.601562 C 7 1.644531 6.179688 1 4.984375 1 C 3.796875 1 3.019531 1.628906 3.003906 2.601562 C 3.003906 2.605469 3.003906 2.605469 3.003906 2.605469 C 3.003906 2.609375 3.003906 2.609375 3.003906 2.609375 C 3.003906 2.609375 3.003906 2.613281 3.003906 2.613281 C 3.003906 2.613281 3 2.617188 3 2.617188 C 3 2.617188 3 2.617188 3 2.621094 L 2.996094 2.621094 L 2.996094 2.625 L 2.992188 2.628906 L 2.988281 2.628906 L 2.988281 2.632812 L 2.980469 2.632812 L 2.976562 2.636719 C 2.949219 2.640625 2.300781 2.824219 2.300781 3.734375 L 2.300781 3.796875 C 2.300781 4.691406 2.300781 5.28125 2.691406 5.445312 C 3 5.574219 3.179688 5.296875 3.242188 5.171875 C 3.242188 5.167969 3.246094 5.164062 3.25 5.164062 C 3.140625 4.957031 3.074219 4.742188 3.058594 4.507812 L 2.988281 3.515625 C 2.988281 3.507812 2.992188 3.496094 2.996094 3.488281 C 3.003906 3.480469 3.011719 3.476562 3.023438 3.476562 C 3.03125 3.476562 3.042969 3.480469 3.050781 3.488281 C 3.058594 3.492188 3.0625 3.503906 3.0625 3.511719 L 3.132812 4.503906 C 3.136719 4.597656 3.152344 4.691406 3.179688 4.78125 C 3.203125 4.875 3.234375 4.960938 3.273438 5.046875 C 3.3125 5.132812 3.363281 5.214844 3.417969 5.292969 C 3.472656 5.367188 3.535156 5.4375 3.601562 5.503906 C 3.671875 5.484375 3.742188 5.476562 3.8125 5.476562 C 4.011719 5.480469 4.167969 5.539062 4.273438 5.65625 C 4.339844 5.730469 4.378906 5.820312 4.398438 5.917969 C 4.503906 5.9375 4.605469 5.949219 4.710938 5.949219 L 5.277344 5.949219 C 5.371094 5.949219 5.460938 5.941406 5.550781 5.925781 C 5.570312 5.824219 5.613281 5.734375 5.679688 5.65625 C 5.785156 5.539062 5.941406 5.480469 6.140625 5.476562 C 6.222656 5.476562 6.300781 5.488281 6.378906 5.511719 C 6.445312 5.449219 6.507812 5.378906 6.5625 5.304688 C 6.617188 5.230469 6.664062 5.152344 6.707031 5.066406 C 6.746094 4.984375 6.78125 4.898438 6.804688 4.808594 C 6.832031 4.71875 6.847656 4.628906 6.855469 4.535156 L 6.941406 3.582031 C 6.941406 3.574219 6.949219 3.566406 6.957031 3.558594 C 6.964844 3.550781 6.972656 3.550781 6.980469 3.550781 C 6.992188 3.550781 7 3.554688 7.007812 3.5625 C 7.011719 3.570312 7.015625 3.578125 7.015625 3.589844 L 6.929688 4.542969 C 6.90625 4.765625 6.84375 4.976562 6.730469 5.175781 C 6.796875 5.300781 6.972656 5.574219 7.28125 5.445312 C 7.671875 5.28125 7.671875 4.691406 7.671875 3.796875 Z M 5 1.75 C 5.03125 1.75 5.0625 1.75 5.09375 1.753906 C 5.128906 1.757812 5.160156 1.761719 5.191406 1.769531 C 5.222656 1.773438 5.253906 1.78125 5.285156 1.792969 C 5.316406 1.800781 5.34375 1.8125 5.375 1.824219 C 5.40625 1.835938 5.433594 1.851562 5.460938 1.863281 C 5.492188 1.878906 5.519531 1.898438 5.546875 1.914062 C 5.570312 1.933594 5.597656 1.953125 5.621094 1.972656 C 5.648438 1.992188 5.671875 2.015625 5.695312 2.039062 C 5.71875 2.058594 5.738281 2.082031 5.757812 2.109375 C 5.78125 2.132812 5.796875 2.160156 5.816406 2.1875 C 5.835938 2.214844 5.851562 2.242188 5.867188 2.269531 C 5.882812 2.296875 5.894531 2.328125 5.90625 2.355469 C 5.917969 2.386719 5.929688 2.417969 5.941406 2.445312 C 5.949219 2.476562 5.957031 2.507812 5.964844 2.539062 C 5.96875 2.574219 5.972656 2.605469 5.976562 2.636719 C 5.980469 2.667969 5.984375 2.699219 5.984375 2.734375 C 5.984375 2.765625 5.980469 2.796875 5.976562 2.828125 C 5.972656 2.863281 5.96875 2.894531 5.964844 2.925781 C 5.957031 2.957031 5.949219 2.988281 5.941406 3.019531 C 5.929688 3.050781 5.917969 3.078125 5.90625 3.109375 C 5.894531 3.140625 5.882812 3.167969 5.867188 3.195312 C 5.851562 3.226562 5.835938 3.253906 5.816406 3.28125 C 5.796875 3.304688 5.78125 3.332031 5.757812 3.355469 C 5.738281 3.382812 5.71875 3.40625 5.695312 3.429688 C 5.671875 3.453125 5.648438 3.472656 5.621094 3.492188 C 5.597656 3.515625 5.570312 3.53125 5.546875 3.550781 C 5.519531 3.570312 5.492188 3.585938 5.460938 3.601562 C 5.433594 3.617188 5.40625 3.628906 5.375 3.640625 C 5.34375 3.652344 5.316406 3.664062 5.285156 3.675781 C 5.253906 3.683594 5.222656 3.691406 5.191406 3.699219 C 5.160156 3.703125 5.128906 3.707031 5.09375 3.710938 C 5.0625 3.714844 5.03125 3.714844 5 3.714844 C 4.964844 3.714844 4.933594 3.714844 4.902344 3.710938 C 4.871094 3.707031 4.839844 3.703125 4.808594 3.699219 C 4.773438 3.691406 4.742188 3.683594 4.714844 3.675781 C 4.683594 3.664062 4.652344 3.652344 4.621094 3.640625 C 4.59375 3.628906 4.5625 3.617188 4.535156 3.601562 C 4.507812 3.585938 4.480469 3.570312 4.453125 3.550781 C 4.425781 3.53125 4.398438 3.515625 4.375 3.492188 C 4.351562 3.472656 4.324219 3.453125 4.304688 3.429688 C 4.28125 3.40625 4.257812 3.382812 4.238281 3.355469 C 4.21875 3.332031 4.199219 3.304688 4.179688 3.28125 C 4.164062 3.253906 4.144531 3.226562 4.132812 3.195312 C 4.117188 3.167969 4.101562 3.140625 4.089844 3.109375 C 4.078125 3.078125 4.066406 3.050781 4.058594 3.019531 C 4.046875 2.988281 4.039062 2.957031 4.035156 2.925781 C 4.027344 2.894531 4.023438 2.863281 4.019531 2.828125 C 4.015625 2.796875 4.015625 2.765625 4.015625 2.734375 C 4.015625 2.699219 4.015625 2.667969 4.019531 2.636719 C 4.023438 2.605469 4.027344 2.574219 4.035156 2.539062 C 4.039062 2.507812 4.046875 2.476562 4.058594 2.449219 C 4.066406 2.417969 4.078125 2.386719 4.089844 2.355469 C 4.101562 2.328125 4.117188 2.296875 4.132812 2.269531 C 4.148438 2.242188 4.164062 2.214844 4.179688 2.1875 C 4.199219 2.160156 4.21875 2.132812 4.238281 2.109375 C 4.257812 2.085938 4.28125 2.058594 4.304688 2.039062 C 4.328125 2.015625 4.351562 1.992188 4.375 1.972656 C 4.398438 1.953125 4.425781 1.933594 4.453125 1.914062 C 4.480469 1.898438 4.507812 1.878906 4.535156 1.867188 C 4.5625 1.851562 4.59375 1.835938 4.621094 1.824219 C 4.652344 1.8125 4.683594 1.800781 4.714844 1.792969 C 4.742188 1.78125 4.773438 1.773438 4.808594 1.769531 C 4.839844 1.761719 4.871094 1.757812 4.902344 1.753906 C 4.933594 1.75 4.964844 1.75 5 1.75 Z M 6.214844 4.90625 C 5.992188 5.152344 5.578125 5.289062 5.046875 5.292969 L 5.027344 5.292969 C 4.621094 5.292969 4.261719 5.203125 3.984375 5.03125 C 3.6875 4.851562 3.539062 4.507812 3.613281 4.179688 C 3.664062 3.960938 3.8125 3.71875 4.234375 3.792969 C 4.984375 3.925781 5.140625 3.925781 5.519531 3.8125 C 5.78125 3.738281 6.003906 3.753906 6.160156 3.859375 C 6.300781 3.957031 6.382812 4.125 6.402344 4.355469 C 6.417969 4.566406 6.355469 4.753906 6.214844 4.90625 Z M 6.214844 4.90625 "/>
<path style=" stroke:none;fill-rule:nonzero;fill:rgb(96.862745%,58.039216%,11.372549%);fill-opacity:1;" d="M 6.960938 1.957031 C 7.375 1.328125 7.09375 0.949219 6.886719 0.777344 C 6.875 0.765625 6.863281 0.757812 6.847656 0.757812 C 6.832031 0.753906 6.816406 0.753906 6.804688 0.761719 C 6.789062 0.765625 6.773438 0.773438 6.765625 0.785156 C 6.753906 0.796875 6.746094 0.8125 6.742188 0.828125 C 6.675781 1.132812 6.464844 1.300781 6.433594 1.328125 C 6.445312 1.335938 6.453125 1.34375 6.464844 1.347656 C 6.6875 1.515625 6.855469 1.722656 6.960938 1.957031 Z M 6.960938 1.957031 "/>
<path style=" stroke:none;fill-rule:nonzero;fill:rgb(100%,100%,100%);fill-opacity:1;" d="M 4.425781 4.25 C 4.4375 4.25 4.445312 4.25 4.453125 4.242188 C 4.503906 4.199219 4.519531 4.023438 4.519531 3.914062 C 4.453125 3.902344 4.378906 3.890625 4.300781 3.878906 C 4.304688 4.007812 4.339844 4.230469 4.425781 4.25 Z M 4.425781 4.25 "/>
<path style=" stroke:none;fill-rule:nonzero;fill:rgb(88.627451%,41.568627%,47.45098%);fill-opacity:1;" d="M 4.113281 5.019531 C 4.371094 5.152344 4.691406 5.222656 5.046875 5.21875 C 5.421875 5.214844 5.734375 5.144531 5.957031 5.015625 C 5.945312 4.964844 5.925781 4.917969 5.90625 4.867188 C 5.882812 4.820312 5.859375 4.773438 5.832031 4.730469 C 5.800781 4.6875 5.769531 4.644531 5.734375 4.605469 C 5.699219 4.570312 5.660156 4.535156 5.617188 4.5 C 5.578125 4.46875 5.53125 4.441406 5.484375 4.417969 C 5.441406 4.390625 5.390625 4.371094 5.34375 4.355469 C 5.292969 4.335938 5.242188 4.324219 5.191406 4.316406 C 5.136719 4.308594 5.085938 4.304688 5.035156 4.304688 C 4.980469 4.304688 4.929688 4.308594 4.878906 4.316406 C 4.824219 4.324219 4.773438 4.339844 4.726562 4.355469 C 4.675781 4.371094 4.628906 4.394531 4.582031 4.417969 C 4.535156 4.445312 4.492188 4.472656 4.449219 4.503906 C 4.410156 4.535156 4.371094 4.570312 4.335938 4.609375 C 4.300781 4.648438 4.265625 4.691406 4.238281 4.734375 C 4.210938 4.777344 4.183594 4.824219 4.164062 4.871094 C 4.144531 4.921875 4.125 4.96875 4.113281 5.019531 Z M 4.113281 5.019531 "/>
<path style=" stroke:none;fill-rule:nonzero;fill:rgb(0%,36.470588%,44.705882%);fill-opacity:1;" d="M 5.09375 4.164062 C 5.082031 4.097656 4.972656 4.097656 4.960938 4.164062 C 4.957031 4.214844 4.957031 4.269531 4.957031 4.324219 C 4.957031 4.375 4.957031 4.425781 4.960938 4.476562 C 4.964844 4.582031 4.984375 4.679688 5.015625 4.777344 C 5.015625 4.785156 5.019531 4.785156 5.023438 4.785156 C 5.03125 4.785156 5.035156 4.785156 5.035156 4.777344 C 5.066406 4.679688 5.085938 4.582031 5.089844 4.476562 C 5.09375 4.425781 5.09375 4.375 5.097656 4.324219 C 5.097656 4.269531 5.101562 4.214844 5.09375 4.164062 Z M 5.09375 4.164062 "/>
<path style=" stroke:none;fill-rule:nonzero;fill:rgb(70.196078%,100%,100%);fill-opacity:1;" d="M 5 1.820312 C 4.921875 1.820312 4.84375 1.832031 4.765625 1.851562 C 4.691406 1.871094 4.617188 1.902344 4.550781 1.941406 C 4.480469 1.980469 4.417969 2.027344 4.363281 2.082031 C 4.308594 2.136719 4.257812 2.195312 4.21875 2.265625 L 4.25 2.257812 C 4.25 2.257812 4.59375 1.917969 5 1.917969 C 5.40625 1.917969 5.796875 2.296875 5.796875 2.296875 C 5.757812 2.226562 5.710938 2.160156 5.65625 2.101562 C 5.597656 2.042969 5.535156 1.992188 5.464844 1.949219 C 5.394531 1.90625 5.320312 1.875 5.238281 1.855469 C 5.160156 1.832031 5.082031 1.820312 5 1.820312 Z M 5 1.820312 "/>
<path style=" stroke:none;fill-rule:nonzero;fill:rgb(70.196078%,100%,100%);fill-opacity:1;" d="M 6.9375 2.128906 C 6.699219 1.4375 5.96875 1 4.984375 1 C 4.003906 1 3.304688 1.429688 3.078125 2.128906 C 3.109375 2.070312 3.625 1.160156 4.984375 1.160156 C 6.355469 1.160156 6.910156 2.078125 6.9375 2.128906 Z M 6.9375 2.128906 "/>
<path style=" stroke:none;fill-rule:nonzero;fill:rgb(70.196078%,100%,100%);fill-opacity:1;" d="M 7.019531 2.601562 C 7.019531 2.601562 7.636719 3.15625 7.671875 4.066406 C 7.671875 4.066406 7.863281 2.847656 7.019531 2.601562 Z M 7.019531 2.601562 "/>
<path style=" stroke:none;fill-rule:nonzero;fill:rgb(70.196078%,100%,100%);fill-opacity:1;" d="M 2.972656 2.625 C 2.972656 2.625 2.355469 3.179688 2.320312 4.089844 C 2.320312 4.089844 2.128906 2.871094 2.972656 2.625 Z M 2.972656 2.625 "/>
<path style=" stroke:none;fill-rule:nonzero;fill:rgb(30.196078%,68.627451%,100%);fill-opacity:1;" d="M 4.113281 2.550781 L 5.898438 2.550781 L 5.910156 2.695312 L 4.089844 2.695312 Z M 4.113281 2.550781 "/>
<path style=" stroke:none;fill-rule:nonzero;fill:rgb(30.196078%,68.627451%,100%);fill-opacity:1;" d="M 3.601562 5.503906 C 3.671875 5.484375 3.742188 5.476562 3.8125 5.476562 C 3.878906 5.476562 3.941406 5.484375 4.003906 5.5 L 3.992188 5.496094 C 3.398438 5.320312 3.257812 4.660156 3.257812 4.660156 L 3.0625 3.511719 L 3.132812 4.503906 C 3.136719 4.597656 3.152344 4.691406 3.175781 4.78125 C 3.199219 4.875 3.234375 4.960938 3.273438 5.046875 C 3.3125 5.132812 3.359375 5.214844 3.417969 5.289062 C 3.472656 5.367188 3.53125 5.4375 3.601562 5.503906 Z M 3.601562 5.503906 "/>
<path style=" stroke:none;fill-rule:nonzero;fill:rgb(30.196078%,68.627451%,100%);fill-opacity:1;" d="M 4.710938 5.949219 L 5.277344 5.949219 C 5.371094 5.949219 5.460938 5.941406 5.550781 5.925781 C 5.570312 5.824219 5.613281 5.734375 5.679688 5.65625 C 5.710938 5.625 5.742188 5.597656 5.78125 5.574219 L 5.777344 5.574219 C 5.460938 5.667969 4.628906 5.675781 4.042969 5.511719 C 4.132812 5.539062 4.207031 5.585938 4.273438 5.65625 C 4.335938 5.734375 4.378906 5.820312 4.398438 5.917969 C 4.503906 5.9375 4.605469 5.949219 4.710938 5.949219 Z M 4.710938 5.949219 "/>
<path style=" stroke:none;fill-rule:nonzero;fill:rgb(30.196078%,68.627451%,100%);fill-opacity:1;" d="M 6.855469 4.535156 L 6.941406 3.582031 C 6.859375 3.910156 6.792969 4.242188 6.746094 4.574219 C 6.683594 5.011719 6.292969 5.339844 5.972656 5.496094 C 6.027344 5.484375 6.082031 5.476562 6.140625 5.476562 C 6.222656 5.476562 6.300781 5.488281 6.378906 5.511719 C 6.445312 5.449219 6.507812 5.378906 6.5625 5.304688 C 6.617188 5.230469 6.664062 5.152344 6.707031 5.066406 C 6.746094 4.984375 6.78125 4.898438 6.804688 4.808594 C 6.832031 4.71875 6.847656 4.628906 6.855469 4.535156 Z M 6.855469 4.535156 "/>
<path style=" stroke:none;fill-rule:nonzero;fill:rgb(30.196078%,68.627451%,100%);fill-opacity:1;" d="M 7.617188 4.925781 C 7.566406 5.136719 7.429688 5.3125 7.191406 5.316406 C 6.828125 5.320312 6.851562 4.90625 6.851562 4.90625 C 6.820312 5 6.78125 5.089844 6.734375 5.175781 C 6.796875 5.300781 6.972656 5.574219 7.28125 5.445312 C 7.46875 5.363281 7.566406 5.1875 7.617188 4.925781 Z M 7.617188 4.925781 "/>
<path style=" stroke:none;fill-rule:nonzero;fill:rgb(30.196078%,68.627451%,100%);fill-opacity:1;" d="M 2.347656 4.925781 C 2.394531 5.136719 2.535156 5.3125 2.773438 5.316406 C 3.136719 5.320312 3.109375 4.90625 3.109375 4.90625 L 3.113281 4.90625 C 3.144531 5 3.183594 5.089844 3.230469 5.175781 C 3.167969 5.300781 2.988281 5.574219 2.679688 5.445312 C 2.492188 5.363281 2.394531 5.1875 2.347656 4.925781 Z M 2.347656 4.925781 "/>
<path style=" stroke:none;fill-rule:nonzero;fill:rgb(88.627451%,41.568627%,47.45098%);fill-opacity:1;" d="M 6.804688 3.488281 C 6.804688 3.496094 6.800781 3.503906 6.796875 3.515625 C 6.789062 3.523438 6.78125 3.53125 6.773438 3.539062 C 6.761719 3.546875 6.75 3.554688 6.734375 3.5625 C 6.71875 3.570312 6.703125 3.574219 6.683594 3.582031 C 6.664062 3.585938 6.644531 3.59375 6.621094 3.597656 C 6.597656 3.601562 6.574219 3.605469 6.550781 3.609375 C 6.523438 3.613281 6.5 3.617188 6.472656 3.617188 C 6.445312 3.617188 6.417969 3.621094 6.394531 3.621094 C 6.367188 3.621094 6.339844 3.617188 6.3125 3.617188 C 6.285156 3.617188 6.261719 3.613281 6.234375 3.609375 C 6.210938 3.605469 6.1875 3.601562 6.164062 3.597656 C 6.140625 3.59375 6.121094 3.585938 6.101562 3.582031 C 6.082031 3.574219 6.066406 3.570312 6.050781 3.5625 C 6.035156 3.554688 6.023438 3.546875 6.011719 3.539062 C 6.003906 3.53125 5.996094 3.523438 5.988281 3.515625 C 5.984375 3.503906 5.984375 3.496094 5.984375 3.488281 C 5.984375 3.480469 5.984375 3.472656 5.988281 3.464844 C 5.996094 3.453125 6.003906 3.445312 6.011719 3.4375 C 6.023438 3.429688 6.035156 3.421875 6.050781 3.414062 C 6.066406 3.410156 6.082031 3.402344 6.101562 3.394531 C 6.121094 3.390625 6.140625 3.382812 6.164062 3.378906 C 6.1875 3.375 6.210938 3.371094 6.234375 3.367188 C 6.261719 3.363281 6.285156 3.363281 6.3125 3.359375 C 6.339844 3.359375 6.367188 3.359375 6.394531 3.359375 C 6.417969 3.359375 6.445312 3.359375 6.472656 3.359375 C 6.5 3.363281 6.523438 3.363281 6.550781 3.367188 C 6.574219 3.371094 6.597656 3.375 6.621094 3.378906 C 6.644531 3.382812 6.664062 3.390625 6.683594 3.394531 C 6.703125 3.402344 6.71875 3.410156 6.734375 3.414062 C 6.75 3.421875 6.761719 3.429688 6.773438 3.4375 C 6.78125 3.445312 6.789062 3.453125 6.796875 3.464844 C 6.800781 3.472656 6.804688 3.480469 6.804688 3.488281 Z M 6.804688 3.488281 "/>
<path style=" stroke:none;fill-rule:nonzero;fill:rgb(88.627451%,41.568627%,47.45098%);fill-opacity:1;" d="M 4.113281 3.488281 C 4.113281 3.496094 4.113281 3.503906 4.105469 3.515625 C 4.101562 3.523438 4.09375 3.53125 4.082031 3.539062 C 4.074219 3.546875 4.058594 3.554688 4.046875 3.5625 C 4.03125 3.570312 4.011719 3.574219 3.996094 3.582031 C 3.976562 3.585938 3.953125 3.59375 3.933594 3.597656 C 3.910156 3.601562 3.886719 3.605469 3.859375 3.609375 C 3.835938 3.613281 3.808594 3.617188 3.785156 3.617188 C 3.757812 3.617188 3.730469 3.621094 3.703125 3.621094 C 3.675781 3.621094 3.652344 3.617188 3.625 3.617188 C 3.597656 3.617188 3.570312 3.613281 3.546875 3.609375 C 3.523438 3.605469 3.5 3.601562 3.476562 3.597656 C 3.453125 3.59375 3.433594 3.585938 3.414062 3.582031 C 3.394531 3.574219 3.378906 3.570312 3.363281 3.5625 C 3.347656 3.554688 3.335938 3.546875 3.324219 3.539062 C 3.316406 3.53125 3.308594 3.523438 3.300781 3.515625 C 3.296875 3.503906 3.292969 3.496094 3.292969 3.488281 C 3.292969 3.480469 3.296875 3.472656 3.300781 3.464844 C 3.308594 3.453125 3.316406 3.445312 3.324219 3.4375 C 3.335938 3.429688 3.347656 3.421875 3.363281 3.414062 C 3.378906 3.410156 3.394531 3.402344 3.414062 3.394531 C 3.433594 3.390625 3.453125 3.382812 3.476562 3.378906 C 3.5 3.375 3.523438 3.371094 3.546875 3.367188 C 3.570312 3.363281 3.597656 3.363281 3.625 3.359375 C 3.652344 3.359375 3.675781 3.359375 3.703125 3.359375 C 3.730469 3.359375 3.757812 3.359375 3.785156 3.359375 C 3.808594 3.363281 3.835938 3.363281 3.859375 3.367188 C 3.886719 3.371094 3.910156 3.375 3.933594 3.378906 C 3.953125 3.382812 3.976562 3.390625 3.996094 3.394531 C 4.011719 3.402344 4.03125 3.410156 4.046875 3.414062 C 4.058594 3.421875 4.074219 3.429688 4.082031 3.4375 C 4.09375 3.445312 4.101562 3.453125 4.105469 3.464844 C 4.113281 3.472656 4.113281 3.480469 4.113281 3.488281 Z M 4.113281 3.488281 "/>
<path style=" stroke:none;fill-rule:nonzero;fill:rgb(93.72549%,41.568627%,5.882353%);fill-opacity:1;" d="M 5.214844 6.019531 C 5.214844 6.023438 5.21875 6.027344 5.21875 6.03125 L 5.21875 6.238281 C 5.21875 6.261719 5.21875 6.28125 5.222656 6.304688 C 5.226562 6.324219 5.234375 6.347656 5.242188 6.367188 C 5.25 6.386719 5.261719 6.40625 5.273438 6.421875 C 5.285156 6.441406 5.296875 6.457031 5.3125 6.472656 C 5.328125 6.488281 5.347656 6.503906 5.363281 6.515625 C 5.382812 6.527344 5.402344 6.535156 5.421875 6.546875 C 5.441406 6.554688 5.460938 6.558594 5.484375 6.5625 C 5.503906 6.566406 5.527344 6.570312 5.546875 6.570312 L 6.316406 6.570312 C 6.359375 6.570312 6.402344 6.5625 6.445312 6.542969 C 6.488281 6.527344 6.523438 6.5 6.554688 6.46875 C 5.332031 6.640625 5.539062 6 5.539062 6 C 5.453125 6.015625 5.367188 6.019531 5.277344 6.019531 Z M 5.214844 6.019531 "/>
<path style=" stroke:none;fill-rule:nonzero;fill:rgb(100%,94.901961%,0%);fill-opacity:1;" d="M 6.617188 5.804688 C 6.550781 5.6875 6.417969 5.546875 6.140625 5.550781 C 5.960938 5.550781 5.824219 5.605469 5.734375 5.703125 C 5.652344 5.796875 5.625 5.914062 5.613281 5.996094 C 5.617188 5.992188 5.742188 5.738281 5.980469 5.667969 C 5.957031 5.679688 5.945312 5.695312 5.945312 5.714844 C 5.941406 5.761719 6.03125 5.808594 6.148438 5.816406 C 6.261719 5.824219 6.359375 5.792969 6.363281 5.746094 C 6.363281 5.738281 6.363281 5.730469 6.359375 5.726562 C 6.601562 5.867188 6.660156 6.1875 6.554688 6.46875 C 6.585938 6.4375 6.613281 6.402344 6.636719 6.363281 C 6.703125 6.269531 6.730469 6.015625 6.617188 5.804688 Z M 6.617188 5.804688 "/>
<path style=" stroke:none;fill-rule:nonzero;fill:rgb(100%,94.901961%,0%);fill-opacity:1;" d="M 5.421875 6.015625 L 5.539062 6.003906 C 5.539062 6.003906 5.539062 6 5.539062 6 C 5.5 6.007812 5.460938 6.011719 5.421875 6.015625 Z M 5.421875 6.015625 "/>
<path style=" stroke:none;fill-rule:nonzero;fill:rgb(93.72549%,41.568627%,5.882353%);fill-opacity:1;" d="M 4.730469 6.019531 C 4.730469 6.023438 4.730469 6.027344 4.730469 6.03125 L 4.730469 6.238281 C 4.730469 6.261719 4.726562 6.28125 4.722656 6.304688 C 4.71875 6.324219 4.710938 6.347656 4.703125 6.367188 C 4.695312 6.386719 4.683594 6.40625 4.671875 6.421875 C 4.660156 6.441406 4.648438 6.457031 4.632812 6.472656 C 4.617188 6.488281 4.601562 6.503906 4.582031 6.515625 C 4.5625 6.527344 4.542969 6.535156 4.523438 6.546875 C 4.503906 6.554688 4.484375 6.558594 4.460938 6.5625 C 4.441406 6.566406 4.417969 6.570312 4.398438 6.570312 L 3.628906 6.570312 C 3.585938 6.570312 3.542969 6.5625 3.5 6.542969 C 3.457031 6.527344 3.421875 6.5 3.390625 6.46875 C 4.613281 6.640625 4.40625 6 4.40625 6 C 4.492188 6.015625 4.578125 6.019531 4.667969 6.019531 Z M 4.730469 6.019531 "/>
<path style=" stroke:none;fill-rule:nonzero;fill:rgb(100%,94.901961%,0%);fill-opacity:1;" d="M 3.804688 5.550781 C 3.527344 5.546875 3.394531 5.6875 3.328125 5.804688 C 3.214844 6.015625 3.242188 6.269531 3.308594 6.363281 C 3.332031 6.402344 3.359375 6.4375 3.390625 6.46875 C 3.285156 6.1875 3.34375 5.867188 3.585938 5.726562 C 3.582031 5.730469 3.582031 5.738281 3.582031 5.746094 C 3.585938 5.792969 3.679688 5.824219 3.796875 5.816406 C 3.914062 5.808594 4.003906 5.761719 4 5.714844 C 4 5.695312 3.988281 5.679688 3.964844 5.667969 C 4.203125 5.738281 4.328125 5.992188 4.332031 5.996094 C 4.320312 5.914062 4.292969 5.796875 4.210938 5.703125 C 4.121094 5.605469 3.984375 5.550781 3.804688 5.550781 Z M 3.804688 5.550781 "/>
<path style=" stroke:none;fill-rule:nonzero;fill:rgb(100%,94.901961%,0%);fill-opacity:1;" d="M 4.40625 6 C 4.40625 6 4.40625 6.003906 4.40625 6.003906 L 4.523438 6.015625 C 4.484375 6.011719 4.445312 6.007812 4.40625 6 Z M 4.40625 6 "/>
<path style=" stroke:none;fill-rule:nonzero;fill:rgb(93.72549%,41.568627%,5.882353%);fill-opacity:1;" d="M 6.886719 0.777344 C 6.875 0.765625 6.863281 0.757812 6.847656 0.757812 C 6.832031 0.753906 6.816406 0.753906 6.804688 0.761719 C 6.804688 0.761719 6.964844 0.925781 7.007812 1.167969 C 6.976562 1.148438 6.9375 1.125 6.898438 1.125 C 6.894531 1.125 6.886719 1.132812 6.894531 1.136719 C 6.921875 1.171875 6.964844 1.195312 6.992188 1.230469 C 7 1.246094 7.011719 1.257812 7.019531 1.273438 C 7.023438 1.351562 7.011719 1.429688 6.984375 1.503906 C 6.960938 1.46875 6.929688 1.4375 6.894531 1.410156 C 6.871094 1.394531 6.847656 1.378906 6.824219 1.367188 C 6.8125 1.359375 6.800781 1.355469 6.789062 1.351562 C 6.777344 1.347656 6.761719 1.34375 6.75 1.339844 C 6.742188 1.339844 6.738281 1.339844 6.738281 1.34375 C 6.734375 1.351562 6.734375 1.355469 6.738281 1.359375 C 6.753906 1.375 6.769531 1.394531 6.785156 1.410156 C 6.800781 1.429688 6.816406 1.449219 6.828125 1.46875 C 6.859375 1.507812 6.886719 1.550781 6.910156 1.589844 C 6.914062 1.605469 6.921875 1.617188 6.929688 1.628906 C 6.902344 1.671875 6.878906 1.710938 6.847656 1.75 C 6.890625 1.8125 6.929688 1.882812 6.960938 1.957031 C 6.976562 1.933594 6.992188 1.910156 7.007812 1.886719 C 7.03125 1.910156 7.097656 1.773438 7.085938 1.730469 C 7.304688 1.234375 7.070312 0.925781 6.886719 0.777344 Z M 6.886719 0.777344 "/>
<path style=" stroke:none;fill-rule:nonzero;fill:rgb(100%,94.901961%,0%);fill-opacity:1;" d="M 6.835938 0.746094 C 6.796875 0.726562 6.753906 0.757812 6.730469 0.789062 C 6.707031 0.820312 6.699219 0.855469 6.691406 0.894531 C 6.6875 0.925781 6.675781 0.960938 6.667969 0.992188 C 6.644531 1.054688 6.617188 1.117188 6.578125 1.171875 C 6.5625 1.195312 6.542969 1.222656 6.523438 1.242188 C 6.496094 1.269531 6.46875 1.292969 6.445312 1.320312 C 6.402344 1.363281 6.457031 1.445312 6.515625 1.410156 C 6.570312 1.371094 6.617188 1.3125 6.65625 1.257812 C 6.695312 1.207031 6.726562 1.148438 6.753906 1.089844 C 6.777344 1.027344 6.796875 0.964844 6.808594 0.902344 C 6.8125 0.886719 6.816406 0.875 6.820312 0.863281 C 6.828125 0.847656 6.839844 0.84375 6.847656 0.835938 C 6.855469 0.832031 6.859375 0.824219 6.863281 0.816406 C 6.863281 0.816406 6.867188 0.8125 6.867188 0.8125 C 6.871094 0.8125 6.875 0.8125 6.875 0.804688 C 6.882812 0.78125 6.859375 0.753906 6.835938 0.746094 Z M 6.835938 0.746094 "/>
<path style=" stroke:none;fill-rule:nonzero;fill:rgb(93.72549%,41.568627%,5.882353%);fill-opacity:1;" d="M 3.285156 1.339844 C 3.269531 1.34375 3.257812 1.347656 3.246094 1.351562 C 3.230469 1.355469 3.21875 1.363281 3.207031 1.367188 C 3.183594 1.378906 3.160156 1.394531 3.140625 1.410156 C 3.105469 1.4375 3.074219 1.46875 3.046875 1.503906 C 3.023438 1.429688 3.011719 1.351562 3.011719 1.273438 C 3.023438 1.257812 3.03125 1.246094 3.042969 1.230469 C 3.070312 1.195312 3.113281 1.171875 3.140625 1.136719 C 3.144531 1.132812 3.140625 1.125 3.132812 1.125 C 3.097656 1.125 3.058594 1.144531 3.023438 1.167969 C 3.070312 0.925781 3.230469 0.761719 3.230469 0.761719 C 3.214844 0.753906 3.199219 0.753906 3.183594 0.757812 C 3.171875 0.757812 3.15625 0.765625 3.144531 0.777344 C 2.964844 0.925781 2.730469 1.234375 2.945312 1.730469 C 2.9375 1.777344 3 1.910156 3.027344 1.886719 C 3.039062 1.910156 3.054688 1.933594 3.070312 1.957031 C 3.105469 1.882812 3.140625 1.816406 3.1875 1.75 C 3.15625 1.710938 3.128906 1.671875 3.105469 1.628906 C 3.113281 1.617188 3.117188 1.605469 3.125 1.59375 C 3.148438 1.550781 3.175781 1.507812 3.203125 1.46875 C 3.21875 1.449219 3.234375 1.429688 3.25 1.414062 C 3.265625 1.394531 3.277344 1.375 3.296875 1.359375 C 3.300781 1.355469 3.300781 1.351562 3.296875 1.34375 C 3.296875 1.339844 3.289062 1.335938 3.285156 1.339844 Z M 3.285156 1.339844 "/>
<path style=" stroke:none;fill-rule:nonzero;fill:rgb(100%,94.901961%,0%);fill-opacity:1;" d="M 3.15625 0.804688 C 3.15625 0.8125 3.160156 0.8125 3.164062 0.8125 C 3.167969 0.8125 3.167969 0.816406 3.167969 0.816406 C 3.171875 0.824219 3.179688 0.832031 3.183594 0.835938 C 3.195312 0.84375 3.207031 0.847656 3.214844 0.863281 C 3.21875 0.875 3.222656 0.886719 3.222656 0.902344 C 3.234375 0.964844 3.253906 1.027344 3.277344 1.089844 C 3.304688 1.148438 3.335938 1.207031 3.375 1.257812 C 3.417969 1.3125 3.460938 1.371094 3.519531 1.410156 C 3.574219 1.445312 3.628906 1.363281 3.585938 1.320312 C 3.5625 1.292969 3.535156 1.269531 3.511719 1.242188 C 3.492188 1.222656 3.472656 1.195312 3.453125 1.171875 C 3.417969 1.117188 3.386719 1.054688 3.367188 0.992188 C 3.355469 0.960938 3.347656 0.925781 3.339844 0.894531 C 3.332031 0.855469 3.324219 0.820312 3.300781 0.789062 C 3.277344 0.757812 3.234375 0.726562 3.195312 0.746094 C 3.175781 0.753906 3.152344 0.78125 3.15625 0.804688 Z M 3.15625 0.804688 "/>
<path style=" stroke:none;fill-rule:nonzero;fill:rgb(0%,36.470588%,44.705882%);fill-opacity:1;" d="M 6.171875 3.839844 C 6.011719 3.726562 5.78125 3.710938 5.511719 3.792969 C 5.140625 3.902344 4.984375 3.898438 4.238281 3.769531 C 3.894531 3.707031 3.664062 3.851562 3.589844 4.175781 C 3.511719 4.511719 3.664062 4.867188 3.96875 5.050781 C 4.25 5.226562 4.617188 5.316406 5.027344 5.316406 L 5.046875 5.316406 C 5.582031 5.3125 6.003906 5.171875 6.234375 4.921875 C 6.375 4.765625 6.441406 4.570312 6.425781 4.355469 C 6.40625 4.117188 6.324219 3.941406 6.171875 3.839844 Z M 5.546875 3.90625 C 5.570312 3.902344 5.59375 3.894531 5.613281 3.890625 C 5.605469 4.046875 5.5625 4.214844 5.507812 4.226562 C 5.503906 4.226562 5.503906 4.226562 5.5 4.222656 C 5.464844 4.195312 5.445312 4.058594 5.445312 3.9375 C 5.476562 3.929688 5.511719 3.917969 5.546875 3.90625 Z M 4.4375 4.222656 C 4.4375 4.226562 4.4375 4.226562 4.433594 4.226562 C 4.378906 4.214844 4.335938 4.058594 4.328125 3.90625 C 4.386719 3.917969 4.441406 3.925781 4.492188 3.933594 C 4.492188 4.058594 4.472656 4.195312 4.4375 4.222656 Z M 6.144531 4.839844 C 5.9375 5.066406 5.546875 5.191406 5.046875 5.195312 C 4.648438 5.199219 4.300781 5.113281 4.035156 4.949219 C 3.773438 4.789062 3.644531 4.488281 3.710938 4.203125 C 3.761719 3.984375 3.886719 3.875 4.089844 3.875 C 4.128906 3.875 4.164062 3.878906 4.203125 3.886719 C 4.207031 4.003906 4.238281 4.308594 4.40625 4.34375 C 4.417969 4.347656 4.425781 4.347656 4.433594 4.347656 C 4.464844 4.347656 4.492188 4.335938 4.515625 4.316406 C 4.601562 4.246094 4.613281 4.054688 4.613281 3.953125 C 4.945312 4 5.125 4.003906 5.324219 3.964844 C 5.328125 4.070312 5.34375 4.25 5.421875 4.316406 C 5.445312 4.335938 5.472656 4.347656 5.503906 4.347656 C 5.511719 4.347656 5.523438 4.34375 5.53125 4.34375 C 5.707031 4.304688 5.734375 3.972656 5.738281 3.867188 C 5.886719 3.851562 6.011719 3.875 6.105469 3.941406 C 6.222656 4.019531 6.289062 4.164062 6.304688 4.363281 C 6.320312 4.546875 6.265625 4.707031 6.144531 4.839844 Z M 6.144531 4.839844 "/>
<path style=" stroke:none;fill-rule:nonzero;fill:rgb(0%,36.470588%,44.705882%);fill-opacity:1;" d="M 5 3.742188 C 5.03125 3.742188 5.066406 3.738281 5.097656 3.734375 C 5.128906 3.734375 5.164062 3.726562 5.195312 3.722656 C 5.226562 3.714844 5.257812 3.707031 5.292969 3.699219 C 5.324219 3.6875 5.355469 3.675781 5.382812 3.664062 C 5.414062 3.652344 5.445312 3.636719 5.472656 3.621094 C 5.503906 3.605469 5.53125 3.589844 5.558594 3.570312 C 5.585938 3.554688 5.613281 3.53125 5.636719 3.511719 C 5.664062 3.492188 5.6875 3.46875 5.710938 3.445312 C 5.734375 3.421875 5.757812 3.398438 5.777344 3.371094 C 5.796875 3.347656 5.820312 3.320312 5.835938 3.292969 C 5.855469 3.265625 5.871094 3.238281 5.886719 3.207031 C 5.902344 3.179688 5.917969 3.148438 5.929688 3.117188 C 5.941406 3.089844 5.953125 3.058594 5.964844 3.027344 C 5.972656 2.992188 5.980469 2.960938 5.988281 2.929688 C 5.992188 2.898438 6 2.863281 6 2.832031 C 6.003906 2.796875 6.007812 2.765625 6.007812 2.734375 C 6.007812 2.699219 6.003906 2.667969 6 2.632812 C 6 2.601562 5.992188 2.570312 5.988281 2.535156 C 5.980469 2.503906 5.972656 2.472656 5.964844 2.441406 C 5.953125 2.410156 5.941406 2.378906 5.929688 2.347656 C 5.917969 2.316406 5.902344 2.285156 5.886719 2.257812 C 5.871094 2.226562 5.855469 2.199219 5.835938 2.171875 C 5.820312 2.144531 5.796875 2.117188 5.777344 2.09375 C 5.757812 2.066406 5.734375 2.042969 5.710938 2.019531 C 5.6875 1.996094 5.664062 1.972656 5.636719 1.953125 C 5.613281 1.933594 5.585938 1.914062 5.558594 1.894531 C 5.53125 1.875 5.503906 1.859375 5.472656 1.84375 C 5.445312 1.828125 5.414062 1.8125 5.382812 1.800781 C 5.355469 1.789062 5.324219 1.777344 5.292969 1.769531 C 5.257812 1.757812 5.226562 1.75 5.195312 1.742188 C 5.164062 1.738281 5.128906 1.734375 5.097656 1.730469 C 5.066406 1.726562 5.03125 1.722656 5 1.722656 C 4.964844 1.722656 4.933594 1.726562 4.898438 1.730469 C 4.867188 1.734375 4.835938 1.738281 4.800781 1.742188 C 4.769531 1.75 4.738281 1.757812 4.707031 1.769531 C 4.675781 1.777344 4.644531 1.789062 4.613281 1.800781 C 4.582031 1.8125 4.550781 1.828125 4.523438 1.84375 C 4.496094 1.859375 4.464844 1.875 4.4375 1.894531 C 4.410156 1.914062 4.382812 1.933594 4.359375 1.953125 C 4.332031 1.972656 4.308594 1.996094 4.285156 2.019531 C 4.261719 2.042969 4.242188 2.066406 4.21875 2.09375 C 4.199219 2.117188 4.179688 2.144531 4.160156 2.171875 C 4.140625 2.199219 4.125 2.226562 4.109375 2.257812 C 4.09375 2.285156 4.078125 2.316406 4.066406 2.347656 C 4.054688 2.378906 4.042969 2.410156 4.035156 2.441406 C 4.023438 2.472656 4.015625 2.503906 4.011719 2.535156 C 4.003906 2.570312 4 2.601562 3.996094 2.632812 C 3.992188 2.667969 3.992188 2.699219 3.992188 2.734375 C 3.992188 2.765625 3.992188 2.796875 3.996094 2.832031 C 4 2.863281 4.003906 2.898438 4.011719 2.929688 C 4.015625 2.960938 4.023438 2.992188 4.035156 3.027344 C 4.042969 3.058594 4.054688 3.089844 4.066406 3.117188 C 4.082031 3.148438 4.09375 3.179688 4.109375 3.207031 C 4.125 3.238281 4.140625 3.265625 4.160156 3.292969 C 4.179688 3.320312 4.199219 3.347656 4.21875 3.371094 C 4.242188 3.398438 4.261719 3.421875 4.285156 3.445312 C 4.308594 3.46875 4.335938 3.492188 4.359375 3.511719 C 4.386719 3.53125 4.410156 3.550781 4.4375 3.570312 C 4.464844 3.589844 4.496094 3.605469 4.523438 3.621094 C 4.554688 3.636719 4.582031 3.652344 4.613281 3.664062 C 4.644531 3.675781 4.675781 3.6875 4.707031 3.699219 C 4.738281 3.707031 4.769531 3.714844 4.800781 3.722656 C 4.835938 3.726562 4.867188 3.734375 4.898438 3.734375 C 4.933594 3.738281 4.964844 3.742188 5 3.742188 Z M 5 3.621094 C 4.972656 3.621094 4.941406 3.617188 4.914062 3.617188 C 4.886719 3.613281 4.859375 3.609375 4.832031 3.605469 C 4.804688 3.597656 4.777344 3.59375 4.753906 3.585938 C 4.726562 3.578125 4.699219 3.566406 4.671875 3.558594 C 4.648438 3.546875 4.621094 3.535156 4.597656 3.523438 C 4.574219 3.511719 4.550781 3.496094 4.527344 3.480469 C 4.503906 3.46875 4.480469 3.453125 4.457031 3.433594 C 4.433594 3.417969 4.414062 3.398438 4.394531 3.378906 C 4.375 3.363281 4.355469 3.34375 4.335938 3.320312 C 4.316406 3.300781 4.300781 3.277344 4.285156 3.257812 C 4.265625 3.234375 4.253906 3.210938 4.238281 3.1875 C 4.222656 3.164062 4.210938 3.140625 4.199219 3.113281 C 4.1875 3.089844 4.175781 3.0625 4.167969 3.035156 C 4.15625 3.011719 4.148438 2.984375 4.140625 2.957031 C 4.132812 2.929688 4.128906 2.902344 4.125 2.875 C 4.121094 2.847656 4.117188 2.820312 4.113281 2.792969 L 4.359375 2.792969 C 4.363281 2.832031 4.371094 2.871094 4.382812 2.910156 C 4.390625 2.949219 4.40625 2.984375 4.425781 3.019531 C 4.441406 3.054688 4.460938 3.089844 4.488281 3.121094 C 4.511719 3.152344 4.539062 3.179688 4.566406 3.207031 C 4.59375 3.234375 4.628906 3.257812 4.660156 3.28125 C 4.695312 3.300781 4.730469 3.316406 4.765625 3.332031 C 4.804688 3.347656 4.84375 3.355469 4.878906 3.363281 C 4.917969 3.371094 4.960938 3.375 5 3.375 C 5.039062 3.375 5.078125 3.371094 5.117188 3.363281 C 5.15625 3.355469 5.195312 3.347656 5.230469 3.332031 C 5.265625 3.316406 5.304688 3.300781 5.335938 3.28125 C 5.371094 3.257812 5.402344 3.234375 5.429688 3.207031 C 5.460938 3.179688 5.488281 3.152344 5.511719 3.121094 C 5.535156 3.089844 5.554688 3.054688 5.574219 3.019531 C 5.589844 2.984375 5.605469 2.949219 5.617188 2.910156 C 5.628906 2.871094 5.632812 2.832031 5.636719 2.792969 L 5.882812 2.792969 C 5.882812 2.820312 5.878906 2.847656 5.875 2.875 C 5.867188 2.902344 5.863281 2.929688 5.855469 2.957031 C 5.847656 2.984375 5.839844 3.011719 5.832031 3.035156 C 5.820312 3.0625 5.8125 3.089844 5.800781 3.113281 C 5.789062 3.140625 5.773438 3.164062 5.761719 3.1875 C 5.746094 3.210938 5.730469 3.234375 5.714844 3.257812 C 5.699219 3.277344 5.679688 3.300781 5.660156 3.320312 C 5.644531 3.34375 5.625 3.363281 5.605469 3.378906 C 5.582031 3.398438 5.5625 3.417969 5.539062 3.433594 C 5.519531 3.453125 5.496094 3.46875 5.472656 3.480469 C 5.449219 3.496094 5.425781 3.511719 5.398438 3.523438 C 5.375 3.535156 5.347656 3.546875 5.324219 3.558594 C 5.296875 3.566406 5.273438 3.578125 5.246094 3.585938 C 5.21875 3.59375 5.191406 3.597656 5.164062 3.605469 C 5.136719 3.609375 5.109375 3.613281 5.082031 3.617188 C 5.054688 3.617188 5.027344 3.621094 5 3.621094 Z M 5 1.847656 C 5.027344 1.847656 5.054688 1.847656 5.082031 1.851562 C 5.109375 1.851562 5.136719 1.855469 5.164062 1.863281 C 5.191406 1.867188 5.21875 1.875 5.246094 1.882812 C 5.273438 1.890625 5.296875 1.898438 5.324219 1.90625 C 5.351562 1.917969 5.375 1.929688 5.398438 1.941406 C 5.425781 1.953125 5.449219 1.96875 5.472656 1.984375 C 5.496094 2 5.519531 2.015625 5.539062 2.03125 C 5.5625 2.046875 5.582031 2.066406 5.605469 2.085938 C 5.625 2.105469 5.644531 2.125 5.660156 2.144531 C 5.679688 2.164062 5.699219 2.1875 5.714844 2.210938 C 5.730469 2.230469 5.746094 2.253906 5.761719 2.277344 C 5.773438 2.300781 5.789062 2.328125 5.800781 2.351562 C 5.8125 2.378906 5.820312 2.402344 5.832031 2.429688 C 5.839844 2.453125 5.847656 2.480469 5.855469 2.507812 C 5.863281 2.535156 5.867188 2.5625 5.875 2.589844 C 5.878906 2.617188 5.882812 2.644531 5.882812 2.671875 L 4.113281 2.671875 C 4.117188 2.644531 4.121094 2.617188 4.125 2.589844 C 4.128906 2.5625 4.132812 2.535156 4.140625 2.507812 C 4.148438 2.480469 4.15625 2.453125 4.167969 2.429688 C 4.175781 2.402344 4.1875 2.378906 4.199219 2.351562 C 4.210938 2.328125 4.222656 2.300781 4.238281 2.277344 C 4.253906 2.253906 4.265625 2.230469 4.285156 2.210938 C 4.300781 2.1875 4.316406 2.164062 4.335938 2.144531 C 4.355469 2.125 4.375 2.105469 4.394531 2.085938 C 4.414062 2.066406 4.433594 2.046875 4.457031 2.03125 C 4.480469 2.015625 4.503906 2 4.527344 1.984375 C 4.550781 1.96875 4.574219 1.953125 4.597656 1.941406 C 4.621094 1.929688 4.648438 1.917969 4.671875 1.910156 C 4.699219 1.898438 4.726562 1.890625 4.753906 1.882812 C 4.777344 1.875 4.804688 1.867188 4.832031 1.863281 C 4.859375 1.855469 4.886719 1.851562 4.914062 1.851562 C 4.941406 1.847656 4.972656 1.847656 5 1.847656 Z M 5 1.847656 "/>
<g clip-path="url(#clip1)" clip-rule="nonzero">
<path style=" stroke:none;fill-rule:nonzero;fill:rgb(0%,36.470588%,44.705882%);fill-opacity:1;" d="M 7.769531 3.796875 L 7.769531 3.734375 C 7.769531 2.890625 7.265625 2.621094 7.113281 2.558594 C 7.109375 2.382812 7.074219 2.214844 7.015625 2.050781 C 7.496094 1.34375 7.175781 0.910156 6.941406 0.714844 C 6.917969 0.691406 6.886719 0.679688 6.855469 0.675781 C 6.824219 0.667969 6.792969 0.671875 6.761719 0.679688 C 6.730469 0.691406 6.703125 0.710938 6.683594 0.734375 C 6.660156 0.757812 6.644531 0.785156 6.640625 0.820312 C 6.621094 0.90625 6.585938 0.988281 6.539062 1.0625 C 6.492188 1.140625 6.433594 1.207031 6.363281 1.261719 C 6.359375 1.265625 6.359375 1.265625 6.359375 1.265625 C 5.988281 1.03125 5.507812 0.902344 4.984375 0.902344 C 4.460938 0.902344 4.003906 1.023438 3.648438 1.253906 C 3.582031 1.199219 3.523438 1.132812 3.480469 1.058594 C 3.433594 0.984375 3.402344 0.902344 3.382812 0.820312 C 3.375 0.785156 3.359375 0.757812 3.339844 0.734375 C 3.316406 0.710938 3.289062 0.691406 3.257812 0.679688 C 3.226562 0.671875 3.195312 0.667969 3.164062 0.675781 C 3.132812 0.679688 3.105469 0.691406 3.078125 0.714844 C 2.84375 0.910156 2.527344 1.339844 3.003906 2.046875 C 2.945312 2.210938 2.914062 2.382812 2.910156 2.554688 C 2.75 2.617188 2.203125 2.886719 2.203125 3.734375 L 2.203125 3.796875 C 2.203125 4.730469 2.203125 5.34375 2.652344 5.535156 C 2.714844 5.5625 2.78125 5.574219 2.851562 5.574219 C 3.074219 5.574219 3.222656 5.398438 3.292969 5.28125 C 3.347656 5.367188 3.414062 5.449219 3.484375 5.523438 C 3.382812 5.578125 3.304688 5.65625 3.25 5.757812 C 3.128906 5.984375 3.144531 6.28125 3.234375 6.417969 C 3.261719 6.460938 3.292969 6.5 3.328125 6.535156 C 3.367188 6.578125 3.414062 6.609375 3.46875 6.632812 C 3.523438 6.65625 3.578125 6.667969 3.636719 6.667969 L 4.40625 6.667969 C 4.433594 6.667969 4.460938 6.664062 4.488281 6.660156 C 4.515625 6.652344 4.542969 6.644531 4.570312 6.636719 C 4.59375 6.625 4.621094 6.613281 4.644531 6.59375 C 4.667969 6.578125 4.6875 6.5625 4.707031 6.542969 C 4.726562 6.523438 4.746094 6.5 4.761719 6.476562 C 4.777344 6.453125 4.789062 6.429688 4.800781 6.402344 C 4.8125 6.378906 4.820312 6.351562 4.824219 6.324219 C 4.832031 6.296875 4.832031 6.269531 4.832031 6.238281 L 4.832031 6.046875 L 5.121094 6.046875 L 5.121094 6.238281 C 5.121094 6.269531 5.121094 6.296875 5.128906 6.324219 C 5.132812 6.351562 5.140625 6.378906 5.152344 6.402344 C 5.164062 6.429688 5.175781 6.453125 5.191406 6.476562 C 5.207031 6.5 5.226562 6.523438 5.246094 6.542969 C 5.265625 6.5625 5.285156 6.578125 5.308594 6.59375 C 5.332031 6.609375 5.359375 6.625 5.382812 6.636719 C 5.410156 6.644531 5.4375 6.652344 5.464844 6.660156 C 5.492188 6.664062 5.519531 6.667969 5.546875 6.667969 L 6.316406 6.667969 C 6.375 6.667969 6.429688 6.65625 6.484375 6.632812 C 6.539062 6.609375 6.585938 6.578125 6.625 6.535156 C 6.660156 6.5 6.691406 6.460938 6.71875 6.417969 C 6.808594 6.28125 6.824219 5.984375 6.703125 5.761719 C 6.652344 5.667969 6.582031 5.59375 6.492188 5.539062 C 6.566406 5.464844 6.628906 5.382812 6.6875 5.292969 C 6.761719 5.410156 6.90625 5.574219 7.121094 5.574219 C 7.191406 5.574219 7.257812 5.5625 7.320312 5.535156 C 7.769531 5.34375 7.769531 4.730469 7.769531 3.796875 Z M 6.757812 0.84375 C 6.761719 0.820312 6.777344 0.804688 6.800781 0.796875 C 6.824219 0.789062 6.84375 0.792969 6.863281 0.808594 C 7.101562 1.007812 7.304688 1.359375 6.957031 1.917969 C 6.847656 1.695312 6.683594 1.503906 6.46875 1.34375 C 6.46875 1.339844 6.464844 1.339844 6.460938 1.335938 C 6.535156 1.273438 6.597656 1.199219 6.648438 1.113281 C 6.699219 1.03125 6.734375 0.941406 6.757812 0.84375 Z M 3.15625 0.808594 C 3.175781 0.792969 3.195312 0.789062 3.21875 0.796875 C 3.242188 0.804688 3.257812 0.820312 3.261719 0.84375 C 3.285156 0.9375 3.316406 1.023438 3.367188 1.105469 C 3.414062 1.1875 3.472656 1.261719 3.542969 1.324219 C 3.539062 1.332031 3.53125 1.335938 3.523438 1.339844 C 3.324219 1.492188 3.167969 1.683594 3.0625 1.910156 C 2.71875 1.355469 2.917969 1.003906 3.15625 0.808594 Z M 4.710938 6.238281 C 4.710938 6.257812 4.710938 6.28125 4.707031 6.300781 C 4.703125 6.320312 4.695312 6.339844 4.6875 6.355469 C 4.679688 6.375 4.671875 6.394531 4.660156 6.410156 C 4.648438 6.425781 4.636719 6.441406 4.621094 6.457031 C 4.609375 6.46875 4.59375 6.484375 4.574219 6.496094 C 4.558594 6.503906 4.539062 6.515625 4.523438 6.523438 C 4.503906 6.53125 4.484375 6.535156 4.464844 6.539062 C 4.445312 6.542969 4.425781 6.546875 4.40625 6.546875 L 3.636719 6.546875 C 3.59375 6.546875 3.554688 6.539062 3.515625 6.523438 C 3.476562 6.503906 3.445312 6.480469 3.414062 6.453125 C 3.386719 6.421875 3.359375 6.386719 3.335938 6.351562 C 3.273438 6.257812 3.253906 6.011719 3.359375 5.816406 C 3.417969 5.703125 3.546875 5.570312 3.8125 5.574219 C 3.984375 5.578125 4.113281 5.625 4.199219 5.71875 C 4.335938 5.871094 4.316406 6.09375 4.316406 6.097656 C 4.316406 6.105469 4.316406 6.113281 4.320312 6.121094 C 4.324219 6.128906 4.328125 6.132812 4.332031 6.140625 C 4.335938 6.148438 4.34375 6.152344 4.351562 6.15625 C 4.355469 6.160156 4.363281 6.160156 4.371094 6.160156 C 4.378906 6.164062 4.386719 6.160156 4.394531 6.160156 C 4.402344 6.15625 4.410156 6.152344 4.417969 6.148438 C 4.421875 6.144531 4.425781 6.136719 4.429688 6.128906 C 4.433594 6.125 4.4375 6.117188 4.4375 6.109375 C 4.441406 6.082031 4.441406 6.050781 4.4375 6.023438 C 4.527344 6.039062 4.621094 6.046875 4.710938 6.046875 Z M 6.59375 5.816406 C 6.699219 6.011719 6.679688 6.257812 6.617188 6.351562 C 6.59375 6.386719 6.566406 6.421875 6.539062 6.453125 C 6.507812 6.480469 6.476562 6.503906 6.4375 6.523438 C 6.398438 6.539062 6.359375 6.546875 6.316406 6.546875 L 5.546875 6.546875 C 5.527344 6.546875 5.507812 6.542969 5.488281 6.539062 C 5.46875 6.535156 5.449219 6.53125 5.429688 6.523438 C 5.410156 6.515625 5.394531 6.503906 5.378906 6.496094 C 5.359375 6.484375 5.34375 6.46875 5.332031 6.457031 C 5.316406 6.441406 5.304688 6.425781 5.292969 6.410156 C 5.28125 6.394531 5.273438 6.375 5.265625 6.355469 C 5.257812 6.339844 5.25 6.320312 5.246094 6.300781 C 5.242188 6.28125 5.242188 6.257812 5.242188 6.238281 L 5.242188 6.046875 L 5.277344 6.046875 C 5.355469 6.046875 5.433594 6.039062 5.511719 6.03125 C 5.511719 6.054688 5.511719 6.082031 5.511719 6.109375 C 5.515625 6.117188 5.515625 6.125 5.519531 6.132812 C 5.523438 6.136719 5.53125 6.144531 5.535156 6.148438 C 5.542969 6.152344 5.546875 6.15625 5.554688 6.160156 C 5.5625 6.160156 5.570312 6.164062 5.578125 6.160156 C 5.585938 6.160156 5.59375 6.160156 5.601562 6.15625 C 5.609375 6.152344 5.613281 6.148438 5.621094 6.140625 C 5.625 6.136719 5.628906 6.128906 5.632812 6.121094 C 5.632812 6.113281 5.636719 6.105469 5.632812 6.097656 C 5.632812 6.09375 5.617188 5.871094 5.753906 5.722656 C 5.839844 5.625 5.96875 5.578125 6.140625 5.574219 C 6.40625 5.570312 6.535156 5.703125 6.59375 5.816406 Z M 7.273438 5.421875 C 6.992188 5.539062 6.824219 5.300781 6.761719 5.175781 C 6.867188 4.976562 6.933594 4.769531 6.953125 4.542969 L 7.039062 3.59375 C 7.039062 3.582031 7.039062 3.574219 7.035156 3.566406 C 7.035156 3.558594 7.03125 3.554688 7.027344 3.546875 C 7.019531 3.539062 7.015625 3.535156 7.007812 3.53125 C 7 3.527344 6.992188 3.523438 6.984375 3.523438 C 6.976562 3.523438 6.96875 3.523438 6.960938 3.527344 C 6.953125 3.527344 6.945312 3.53125 6.9375 3.539062 C 6.933594 3.542969 6.929688 3.550781 6.925781 3.558594 C 6.921875 3.566406 6.917969 3.574219 6.917969 3.582031 L 6.832031 4.53125 C 6.824219 4.621094 6.808594 4.710938 6.78125 4.796875 C 6.757812 4.886719 6.726562 4.96875 6.6875 5.050781 C 6.648438 5.132812 6.601562 5.207031 6.550781 5.28125 C 6.496094 5.355469 6.4375 5.421875 6.371094 5.484375 C 6.300781 5.460938 6.226562 5.453125 6.152344 5.453125 L 6.136719 5.453125 C 5.933594 5.457031 5.773438 5.519531 5.664062 5.640625 C 5.597656 5.714844 5.550781 5.804688 5.53125 5.902344 C 5.449219 5.917969 5.363281 5.921875 5.277344 5.925781 L 4.710938 5.925781 C 4.613281 5.921875 4.515625 5.914062 4.417969 5.898438 C 4.398438 5.800781 4.355469 5.714844 4.289062 5.640625 C 4.179688 5.519531 4.019531 5.457031 3.8125 5.453125 L 3.800781 5.453125 C 3.734375 5.453125 3.671875 5.460938 3.609375 5.476562 C 3.542969 5.414062 3.484375 5.34375 3.429688 5.269531 C 3.378906 5.195312 3.332031 5.113281 3.292969 5.03125 C 3.253906 4.949219 3.222656 4.863281 3.199219 4.773438 C 3.175781 4.683594 3.160156 4.59375 3.15625 4.503906 L 3.085938 3.511719 C 3.085938 3.503906 3.082031 3.496094 3.078125 3.488281 C 3.074219 3.480469 3.070312 3.472656 3.066406 3.46875 C 3.058594 3.460938 3.050781 3.457031 3.042969 3.457031 C 3.035156 3.453125 3.027344 3.453125 3.019531 3.453125 C 3.011719 3.453125 3.003906 3.457031 2.996094 3.457031 C 2.988281 3.460938 2.984375 3.46875 2.976562 3.472656 C 2.972656 3.480469 2.96875 3.488281 2.964844 3.496094 C 2.964844 3.503906 2.964844 3.511719 2.964844 3.519531 L 3.035156 4.511719 C 3.050781 4.742188 3.113281 4.957031 3.222656 5.160156 C 3.222656 5.160156 3.21875 5.160156 3.21875 5.164062 C 3.160156 5.28125 2.992188 5.542969 2.699219 5.421875 C 2.324219 5.265625 2.324219 4.679688 2.324219 3.796875 L 2.324219 3.734375 C 2.324219 2.84375 2.957031 2.664062 2.984375 2.660156 C 2.984375 2.660156 2.984375 2.65625 2.988281 2.65625 C 2.988281 2.65625 2.992188 2.65625 2.992188 2.65625 C 2.996094 2.65625 2.996094 2.652344 2.996094 2.652344 C 3 2.652344 3 2.652344 3.003906 2.648438 C 3.003906 2.648438 3.007812 2.648438 3.007812 2.644531 C 3.007812 2.644531 3.011719 2.644531 3.011719 2.640625 C 3.011719 2.640625 3.015625 2.640625 3.015625 2.636719 C 3.015625 2.636719 3.019531 2.632812 3.019531 2.632812 C 3.019531 2.632812 3.019531 2.628906 3.023438 2.628906 C 3.023438 2.625 3.023438 2.625 3.023438 2.621094 C 3.023438 2.621094 3.023438 2.617188 3.027344 2.617188 C 3.027344 2.613281 3.027344 2.613281 3.027344 2.609375 C 3.027344 2.609375 3.027344 2.605469 3.027344 2.605469 C 3.027344 2.601562 3.027344 2.601562 3.027344 2.601562 C 3.042969 1.644531 3.8125 1.023438 4.984375 1.023438 C 5.96875 1.023438 6.972656 1.511719 6.996094 2.601562 C 6.996094 2.617188 7 2.628906 7.011719 2.640625 C 7.019531 2.652344 7.03125 2.65625 7.046875 2.660156 C 7.113281 2.683594 7.648438 2.882812 7.648438 3.734375 L 7.648438 3.796875 C 7.648438 4.679688 7.648438 5.265625 7.273438 5.421875 Z M 7.273438 5.421875 "/>
</g>
<path style=" stroke:none;fill-rule:nonzero;fill:rgb(100%,100%,100%);fill-opacity:1;" d="M 5.035156 2.953125 C 5.035156 2.96875 5.035156 2.980469 5.027344 2.996094 C 5.023438 3.007812 5.015625 3.019531 5.003906 3.027344 C 4.996094 3.039062 4.984375 3.046875 4.972656 3.050781 C 4.960938 3.054688 4.945312 3.058594 4.933594 3.058594 C 4.917969 3.058594 4.90625 3.054688 4.894531 3.050781 C 4.878906 3.046875 4.867188 3.039062 4.859375 3.027344 C 4.847656 3.019531 4.84375 3.007812 4.835938 2.996094 C 4.832031 2.980469 4.828125 2.96875 4.828125 2.953125 C 4.828125 2.941406 4.832031 2.925781 4.835938 2.914062 C 4.84375 2.902344 4.847656 2.890625 4.859375 2.882812 C 4.867188 2.871094 4.878906 2.863281 4.894531 2.859375 C 4.90625 2.855469 4.917969 2.851562 4.933594 2.851562 C 4.945312 2.851562 4.960938 2.855469 4.972656 2.859375 C 4.984375 2.863281 4.996094 2.871094 5.003906 2.882812 C 5.015625 2.890625 5.023438 2.902344 5.027344 2.914062 C 5.035156 2.925781 5.035156 2.941406 5.035156 2.953125 Z M 5.035156 2.953125 "/>
<path style=" stroke:none;fill-rule:nonzero;fill:rgb(100%,100%,100%);fill-opacity:1;" d="M 5.101562 2.792969 C 5.097656 2.800781 5.097656 2.808594 5.097656 2.816406 C 5.097656 2.832031 5.101562 2.84375 5.101562 2.859375 C 5.105469 2.871094 5.109375 2.886719 5.113281 2.898438 C 5.121094 2.910156 5.125 2.925781 5.136719 2.9375 C 5.144531 2.949219 5.152344 2.960938 5.160156 2.96875 C 5.171875 2.980469 5.183594 2.988281 5.195312 2.996094 C 5.207031 3.003906 5.21875 3.011719 5.230469 3.015625 C 5.246094 3.019531 5.257812 3.027344 5.273438 3.027344 C 5.285156 3.03125 5.300781 3.03125 5.316406 3.03125 C 5.328125 3.03125 5.34375 3.03125 5.355469 3.027344 C 5.371094 3.027344 5.382812 3.019531 5.398438 3.015625 C 5.410156 3.011719 5.421875 3.003906 5.433594 2.996094 C 5.445312 2.988281 5.457031 2.980469 5.46875 2.96875 C 5.476562 2.960938 5.488281 2.949219 5.496094 2.9375 C 5.503906 2.925781 5.507812 2.910156 5.515625 2.898438 C 5.519531 2.886719 5.523438 2.871094 5.527344 2.859375 C 5.53125 2.84375 5.53125 2.832031 5.53125 2.816406 C 5.53125 2.808594 5.53125 2.800781 5.53125 2.792969 Z M 5.101562 2.792969 "/>
<path style=" stroke:none;fill-rule:nonzero;fill:rgb(0%,24.705882%,28.627451%);fill-opacity:1;" d="M 0.125 8.054688 C 0.175781 7.980469 0.230469 7.941406 0.285156 7.9375 C 0.335938 7.941406 0.382812 7.96875 0.429688 8.015625 C 0.476562 8.070312 0.527344 8.097656 0.582031 8.097656 C 0.625 8.097656 0.652344 8.089844 0.671875 8.070312 C 0.6875 8.054688 0.695312 8.03125 0.695312 8.003906 C 0.695312 7.976562 0.6875 7.953125 0.667969 7.941406 C 0.648438 7.925781 0.609375 7.90625 0.542969 7.886719 C 0.4375 7.851562 0.351562 7.808594 0.28125 7.761719 C 0.210938 7.71875 0.171875 7.652344 0.171875 7.5625 C 0.171875 7.472656 0.21875 7.398438 0.304688 7.339844 C 0.390625 7.277344 0.484375 7.25 0.582031 7.25 C 0.683594 7.25 0.773438 7.269531 0.847656 7.304688 C 0.921875 7.339844 0.960938 7.382812 0.960938 7.433594 C 0.960938 7.488281 0.894531 7.519531 0.765625 7.539062 C 0.730469 7.507812 0.695312 7.484375 0.671875 7.464844 C 0.644531 7.441406 0.613281 7.429688 0.574219 7.429688 C 0.542969 7.429688 0.515625 7.441406 0.496094 7.460938 C 0.476562 7.480469 0.464844 7.503906 0.464844 7.535156 C 0.464844 7.550781 0.480469 7.566406 0.507812 7.585938 C 0.535156 7.601562 0.570312 7.617188 0.617188 7.632812 C 0.742188 7.667969 0.835938 7.710938 0.902344 7.761719 C 0.972656 7.816406 1.007812 7.890625 1.007812 7.984375 C 1.007812 8.074219 0.964844 8.152344 0.875 8.21875 C 0.789062 8.28125 0.691406 8.3125 0.582031 8.3125 C 0.414062 8.3125 0.261719 8.226562 0.125 8.054688 Z M 0.125 8.054688 "/>
<path style=" stroke:none;fill-rule:nonzero;fill:rgb(0%,24.705882%,28.627451%);fill-opacity:1;" d="M 1.550781 7.609375 L 1.464844 7.800781 L 1.636719 7.800781 Z M 1.667969 7.980469 L 1.4375 7.992188 L 1.332031 8.273438 C 1.261719 8.292969 1.207031 8.304688 1.175781 8.304688 C 1.117188 8.304688 1.066406 8.273438 1.023438 8.21875 L 1.382812 7.292969 C 1.496094 7.261719 1.570312 7.246094 1.609375 7.246094 C 1.660156 7.246094 1.707031 7.265625 1.753906 7.300781 L 2.085938 8.265625 C 1.976562 8.292969 1.90625 8.304688 1.871094 8.304688 C 1.816406 8.304688 1.777344 8.28125 1.753906 8.234375 Z M 1.667969 7.980469 "/>
<path style=" stroke:none;fill-rule:nonzero;fill:rgb(0%,24.705882%,28.627451%);fill-opacity:1;" d="M 2.097656 8.054688 C 2.148438 7.980469 2.203125 7.941406 2.261719 7.9375 C 2.3125 7.941406 2.359375 7.96875 2.402344 8.015625 C 2.449219 8.070312 2.5 8.097656 2.554688 8.097656 C 2.597656 8.097656 2.628906 8.089844 2.644531 8.070312 C 2.660156 8.054688 2.671875 8.03125 2.671875 8.003906 C 2.671875 7.976562 2.660156 7.953125 2.640625 7.941406 C 2.625 7.925781 2.582031 7.90625 2.519531 7.886719 C 2.414062 7.851562 2.324219 7.808594 2.253906 7.761719 C 2.183594 7.71875 2.148438 7.652344 2.144531 7.5625 C 2.148438 7.472656 2.191406 7.398438 2.277344 7.339844 C 2.367188 7.277344 2.457031 7.25 2.554688 7.25 C 2.65625 7.25 2.746094 7.269531 2.820312 7.304688 C 2.898438 7.339844 2.933594 7.382812 2.933594 7.433594 C 2.933594 7.488281 2.871094 7.519531 2.738281 7.539062 C 2.703125 7.507812 2.671875 7.484375 2.644531 7.464844 C 2.621094 7.441406 2.585938 7.429688 2.546875 7.429688 C 2.515625 7.429688 2.492188 7.441406 2.46875 7.460938 C 2.449219 7.480469 2.441406 7.503906 2.441406 7.535156 C 2.441406 7.550781 2.453125 7.566406 2.480469 7.585938 C 2.507812 7.601562 2.546875 7.617188 2.59375 7.632812 C 2.714844 7.667969 2.808594 7.710938 2.878906 7.761719 C 2.945312 7.816406 2.980469 7.890625 2.980469 7.984375 C 2.980469 8.074219 2.9375 8.152344 2.851562 8.21875 C 2.761719 8.28125 2.664062 8.3125 2.554688 8.3125 C 2.386719 8.3125 2.234375 8.226562 2.097656 8.054688 Z M 2.097656 8.054688 "/>
<path style=" stroke:none;fill-rule:nonzero;fill:rgb(0%,24.705882%,28.627451%);fill-opacity:1;" d="M 3.644531 7.304688 C 3.734375 7.265625 3.796875 7.25 3.832031 7.25 C 3.902344 7.25 3.949219 7.277344 3.972656 7.339844 L 3.972656 7.820312 C 3.972656 8.007812 3.921875 8.136719 3.824219 8.203125 C 3.726562 8.269531 3.625 8.304688 3.519531 8.304688 C 3.34375 8.304688 3.226562 8.265625 3.167969 8.183594 C 3.113281 8.101562 3.078125 7.980469 3.070312 7.824219 L 3.042969 7.320312 C 3.128906 7.273438 3.195312 7.25 3.234375 7.25 C 3.304688 7.25 3.351562 7.277344 3.375 7.339844 L 3.398438 7.816406 C 3.40625 7.925781 3.414062 7.992188 3.429688 8.011719 C 3.445312 8.035156 3.476562 8.042969 3.519531 8.042969 C 3.566406 8.042969 3.601562 8.035156 3.617188 8.015625 C 3.632812 7.996094 3.644531 7.933594 3.644531 7.820312 Z M 3.644531 7.304688 "/>
<path style=" stroke:none;fill-rule:nonzero;fill:rgb(0%,24.705882%,28.627451%);fill-opacity:1;" d="M 4.148438 7.316406 C 4.234375 7.273438 4.292969 7.25 4.320312 7.25 C 4.347656 7.25 4.371094 7.28125 4.386719 7.347656 L 4.386719 7.574219 L 4.65625 7.296875 C 4.714844 7.269531 4.765625 7.253906 4.808594 7.253906 C 4.867188 7.269531 4.90625 7.308594 4.925781 7.375 L 4.636719 7.671875 L 5.027344 8.191406 C 5.019531 8.234375 4.996094 8.261719 4.964844 8.269531 C 4.929688 8.28125 4.894531 8.285156 4.855469 8.289062 C 4.796875 8.289062 4.75 8.273438 4.710938 8.242188 L 4.449219 7.859375 L 4.394531 7.910156 L 4.398438 8.273438 C 4.367188 8.296875 4.335938 8.308594 4.308594 8.308594 C 4.273438 8.308594 4.21875 8.28125 4.148438 8.226562 Z M 4.148438 7.316406 "/>
<path style=" stroke:none;fill-rule:nonzero;fill:rgb(0%,24.705882%,28.627451%);fill-opacity:1;" d="M 5.125 7.257812 L 5.878906 7.257812 C 5.933594 7.300781 5.964844 7.335938 5.964844 7.363281 C 5.964844 7.394531 5.945312 7.433594 5.910156 7.492188 L 5.453125 7.492188 L 5.453125 7.664062 L 5.824219 7.636719 C 5.898438 7.664062 5.933594 7.695312 5.933594 7.726562 C 5.933594 7.761719 5.910156 7.804688 5.863281 7.851562 L 5.453125 7.882812 L 5.453125 8.074219 L 5.867188 8.074219 C 5.925781 8.105469 5.957031 8.144531 5.957031 8.183594 C 5.957031 8.207031 5.941406 8.25 5.914062 8.308594 L 5.125 8.308594 Z M 5.125 7.257812 "/>
<path style=" stroke:none;fill-rule:nonzero;fill:rgb(0%,24.705882%,28.627451%);fill-opacity:1;" d="M 6.476562 8.054688 C 6.527344 7.980469 6.582031 7.941406 6.640625 7.9375 C 6.691406 7.941406 6.738281 7.96875 6.785156 8.015625 C 6.828125 8.070312 6.878906 8.097656 6.933594 8.097656 C 6.976562 8.097656 7.007812 8.089844 7.023438 8.070312 C 7.042969 8.054688 7.050781 8.03125 7.050781 8.003906 C 7.050781 7.976562 7.042969 7.953125 7.023438 7.941406 C 7.003906 7.925781 6.964844 7.90625 6.898438 7.886719 C 6.792969 7.851562 6.703125 7.808594 6.632812 7.761719 C 6.5625 7.71875 6.527344 7.652344 6.527344 7.5625 C 6.527344 7.472656 6.570312 7.398438 6.660156 7.339844 C 6.746094 7.277344 6.839844 7.25 6.9375 7.25 C 7.039062 7.25 7.128906 7.269531 7.203125 7.304688 C 7.277344 7.339844 7.316406 7.382812 7.316406 7.433594 C 7.316406 7.488281 7.25 7.519531 7.121094 7.539062 C 7.082031 7.507812 7.050781 7.484375 7.027344 7.464844 C 7 7.441406 6.96875 7.429688 6.929688 7.429688 C 6.898438 7.429688 6.871094 7.441406 6.851562 7.460938 C 6.832031 7.480469 6.820312 7.503906 6.820312 7.535156 C 6.820312 7.550781 6.832031 7.566406 6.859375 7.585938 C 6.886719 7.601562 6.925781 7.617188 6.972656 7.632812 C 7.09375 7.667969 7.191406 7.710938 7.257812 7.761719 C 7.328125 7.816406 7.359375 7.890625 7.359375 7.984375 C 7.359375 8.074219 7.316406 8.152344 7.230469 8.21875 C 7.144531 8.28125 7.046875 8.3125 6.933594 8.3125 C 6.769531 8.3125 6.617188 8.226562 6.476562 8.054688 Z M 6.476562 8.054688 "/>
<path style=" stroke:none;fill-rule:nonzero;fill:rgb(0%,24.705882%,28.627451%);fill-opacity:1;" d="M 7.46875 8.226562 L 7.46875 7.300781 C 7.558594 7.261719 7.621094 7.238281 7.660156 7.238281 C 7.726562 7.242188 7.773438 7.273438 7.796875 7.332031 L 7.796875 8.238281 C 7.710938 8.285156 7.644531 8.308594 7.601562 8.308594 C 7.539062 8.308594 7.492188 8.28125 7.46875 8.226562 Z M 7.46875 8.226562 "/>
<path style=" stroke:none;fill-rule:nonzero;fill:rgb(0%,24.705882%,28.627451%);fill-opacity:1;" d="M 8.011719 7.257812 L 8.832031 7.257812 C 8.871094 7.339844 8.894531 7.394531 8.894531 7.421875 C 8.894531 7.488281 8.847656 7.523438 8.757812 7.523438 L 8.5625 7.523438 L 8.5625 8.261719 C 8.484375 8.289062 8.425781 8.304688 8.378906 8.304688 C 8.3125 8.304688 8.261719 8.28125 8.234375 8.230469 L 8.234375 7.523438 L 7.972656 7.523438 C 7.921875 7.453125 7.898438 7.402344 7.894531 7.375 C 7.898438 7.332031 7.933594 7.292969 8.011719 7.257812 Z M 8.011719 7.257812 "/>
<path style=" stroke:none;fill-rule:nonzero;fill:rgb(0%,24.705882%,28.627451%);fill-opacity:1;" d="M 8.972656 7.257812 L 9.726562 7.257812 C 9.785156 7.300781 9.8125 7.335938 9.8125 7.363281 C 9.8125 7.394531 9.792969 7.433594 9.757812 7.492188 L 9.300781 7.492188 L 9.300781 7.664062 L 9.671875 7.636719 C 9.746094 7.664062 9.78125 7.695312 9.78125 7.726562 C 9.78125 7.761719 9.757812 7.804688 9.714844 7.851562 L 9.300781 7.882812 L 9.300781 8.074219 L 9.71875 8.074219 C 9.777344 8.105469 9.804688 8.144531 9.808594 8.183594 C 9.808594 8.207031 9.792969 8.25 9.761719 8.308594 L 8.972656 8.308594 Z M 8.972656 7.257812 "/>
<path style=" stroke:none;fill-rule:nonzero;fill:rgb(0%,24.705882%,28.627451%);fill-opacity:1;" d="M 2.21875 9.351562 C 2.175781 9.351562 2.144531 9.34375 2.117188 9.332031 C 2.089844 9.320312 2.066406 9.304688 2.054688 9.289062 C 2.039062 9.269531 2.03125 9.246094 2.03125 9.226562 C 2.03125 9.222656 2.035156 9.21875 2.035156 9.214844 C 2.039062 9.214844 2.042969 9.214844 2.046875 9.214844 L 2.113281 9.214844 C 2.121094 9.214844 2.125 9.214844 2.125 9.214844 C 2.128906 9.21875 2.132812 9.222656 2.136719 9.222656 C 2.136719 9.230469 2.144531 9.238281 2.148438 9.246094 C 2.15625 9.253906 2.164062 9.257812 2.175781 9.261719 C 2.1875 9.265625 2.199219 9.269531 2.21875 9.269531 C 2.246094 9.269531 2.265625 9.265625 2.28125 9.253906 C 2.292969 9.246094 2.300781 9.234375 2.300781 9.21875 C 2.300781 9.207031 2.296875 9.199219 2.289062 9.191406 C 2.28125 9.1875 2.269531 9.179688 2.253906 9.175781 C 2.238281 9.167969 2.21875 9.164062 2.191406 9.15625 C 2.160156 9.152344 2.132812 9.140625 2.109375 9.132812 C 2.089844 9.121094 2.070312 9.105469 2.058594 9.089844 C 2.050781 9.070312 2.042969 9.050781 2.042969 9.023438 C 2.042969 9 2.050781 8.976562 2.066406 8.957031 C 2.078125 8.9375 2.097656 8.921875 2.125 8.910156 C 2.148438 8.902344 2.179688 8.894531 2.214844 8.894531 C 2.242188 8.894531 2.269531 8.898438 2.289062 8.90625 C 2.3125 8.914062 2.328125 8.921875 2.34375 8.9375 C 2.359375 8.949219 2.371094 8.960938 2.378906 8.976562 C 2.382812 8.988281 2.386719 9.003906 2.390625 9.015625 C 2.390625 9.019531 2.386719 9.023438 2.386719 9.027344 C 2.382812 9.027344 2.378906 9.03125 2.375 9.03125 L 2.304688 9.03125 C 2.300781 9.03125 2.296875 9.027344 2.292969 9.027344 C 2.289062 9.027344 2.289062 9.023438 2.285156 9.019531 C 2.28125 9.007812 2.273438 8.996094 2.261719 8.988281 C 2.25 8.980469 2.234375 8.976562 2.214844 8.976562 C 2.195312 8.976562 2.175781 8.980469 2.164062 8.988281 C 2.152344 8.996094 2.148438 9.007812 2.148438 9.023438 C 2.148438 9.03125 2.148438 9.042969 2.15625 9.046875 C 2.164062 9.054688 2.171875 9.0625 2.1875 9.066406 C 2.203125 9.070312 2.222656 9.078125 2.246094 9.082031 C 2.28125 9.089844 2.3125 9.101562 2.335938 9.109375 C 2.359375 9.121094 2.375 9.136719 2.386719 9.152344 C 2.398438 9.167969 2.402344 9.191406 2.402344 9.214844 C 2.402344 9.242188 2.394531 9.269531 2.378906 9.289062 C 2.363281 9.308594 2.34375 9.324219 2.316406 9.335938 C 2.285156 9.34375 2.253906 9.351562 2.21875 9.351562 Z M 2.21875 9.351562 "/>
<path style=" stroke:none;fill-rule:nonzero;fill:rgb(0%,24.705882%,28.627451%);fill-opacity:1;" d="M 2.738281 9.34375 C 2.734375 9.34375 2.730469 9.34375 2.730469 9.339844 C 2.726562 9.335938 2.722656 9.332031 2.722656 9.328125 L 2.722656 8.917969 C 2.722656 8.914062 2.726562 8.910156 2.730469 8.90625 C 2.730469 8.902344 2.734375 8.902344 2.738281 8.902344 L 2.8125 8.902344 C 2.816406 8.902344 2.820312 8.902344 2.824219 8.90625 C 2.828125 8.910156 2.828125 8.914062 2.828125 8.917969 L 2.828125 9.328125 C 2.828125 9.332031 2.828125 9.335938 2.824219 9.339844 C 2.820312 9.34375 2.816406 9.34375 2.8125 9.34375 Z M 2.738281 9.34375 "/>
<path style=" stroke:none;fill-rule:nonzero;fill:rgb(0%,24.705882%,28.627451%);fill-opacity:1;" d="M 3.191406 9.34375 C 3.1875 9.34375 3.183594 9.34375 3.179688 9.339844 C 3.175781 9.335938 3.175781 9.332031 3.175781 9.328125 L 3.175781 8.917969 C 3.175781 8.914062 3.175781 8.910156 3.179688 8.90625 C 3.183594 8.902344 3.1875 8.902344 3.191406 8.902344 L 3.25 8.902344 C 3.253906 8.902344 3.257812 8.902344 3.261719 8.90625 C 3.265625 8.910156 3.265625 8.910156 3.269531 8.914062 L 3.4375 9.175781 L 3.4375 8.917969 C 3.4375 8.914062 3.4375 8.910156 3.441406 8.90625 C 3.445312 8.902344 3.449219 8.902344 3.453125 8.902344 L 3.515625 8.902344 C 3.523438 8.902344 3.527344 8.902344 3.527344 8.90625 C 3.53125 8.910156 3.535156 8.914062 3.535156 8.917969 L 3.535156 9.328125 C 3.535156 9.332031 3.53125 9.335938 3.527344 9.339844 C 3.527344 9.34375 3.523438 9.34375 3.515625 9.34375 L 3.460938 9.34375 C 3.453125 9.34375 3.449219 9.34375 3.445312 9.339844 C 3.441406 9.335938 3.441406 9.335938 3.4375 9.332031 L 3.269531 9.078125 L 3.269531 9.328125 C 3.269531 9.332031 3.269531 9.335938 3.265625 9.339844 C 3.265625 9.34375 3.261719 9.34375 3.253906 9.34375 Z M 3.191406 9.34375 "/>
<path style=" stroke:none;fill-rule:nonzero;fill:rgb(0%,24.705882%,28.627451%);fill-opacity:1;" d="M 4.054688 9.351562 C 4.015625 9.351562 3.984375 9.34375 3.957031 9.332031 C 3.925781 9.316406 3.90625 9.296875 3.890625 9.273438 C 3.875 9.246094 3.867188 9.214844 3.867188 9.179688 C 3.863281 9.160156 3.863281 9.144531 3.863281 9.125 C 3.863281 9.101562 3.863281 9.085938 3.867188 9.066406 C 3.867188 9.03125 3.875 9 3.890625 8.972656 C 3.90625 8.949219 3.929688 8.929688 3.957031 8.914062 C 3.984375 8.902344 4.015625 8.894531 4.054688 8.894531 C 4.085938 8.894531 4.109375 8.898438 4.132812 8.90625 C 4.15625 8.914062 4.175781 8.921875 4.195312 8.9375 C 4.210938 8.949219 4.222656 8.964844 4.234375 8.984375 C 4.242188 9.003906 4.246094 9.023438 4.25 9.042969 C 4.25 9.046875 4.246094 9.050781 4.246094 9.054688 C 4.242188 9.058594 4.238281 9.058594 4.234375 9.058594 L 4.160156 9.058594 C 4.15625 9.058594 4.152344 9.058594 4.148438 9.054688 C 4.148438 9.050781 4.144531 9.046875 4.144531 9.042969 C 4.136719 9.015625 4.125 9 4.109375 8.992188 C 4.097656 8.980469 4.078125 8.976562 4.054688 8.976562 C 4.03125 8.976562 4.011719 8.984375 3.996094 9 C 3.980469 9.011719 3.972656 9.035156 3.96875 9.070312 C 3.96875 9.105469 3.96875 9.140625 3.96875 9.175781 C 3.972656 9.210938 3.980469 9.234375 3.996094 9.246094 C 4.011719 9.261719 4.03125 9.269531 4.054688 9.269531 C 4.078125 9.269531 4.097656 9.265625 4.113281 9.253906 C 4.125 9.246094 4.136719 9.226562 4.144531 9.203125 C 4.144531 9.199219 4.148438 9.195312 4.148438 9.191406 C 4.152344 9.1875 4.15625 9.1875 4.160156 9.1875 L 4.234375 9.1875 C 4.238281 9.1875 4.242188 9.1875 4.246094 9.191406 C 4.246094 9.195312 4.25 9.199219 4.25 9.199219 C 4.246094 9.222656 4.242188 9.242188 4.234375 9.261719 C 4.222656 9.28125 4.210938 9.296875 4.195312 9.308594 C 4.175781 9.324219 4.15625 9.332031 4.132812 9.339844 C 4.109375 9.347656 4.085938 9.351562 4.054688 9.351562 Z M 4.054688 9.351562 "/>
<path style=" stroke:none;fill-rule:nonzero;fill:rgb(0%,24.705882%,28.627451%);fill-opacity:1;" d="M 4.585938 9.34375 C 4.582031 9.34375 4.578125 9.34375 4.578125 9.339844 C 4.574219 9.335938 4.570312 9.332031 4.570312 9.328125 L 4.570312 8.917969 C 4.570312 8.914062 4.574219 8.910156 4.578125 8.90625 C 4.578125 8.902344 4.582031 8.902344 4.585938 8.902344 L 4.875 8.902344 C 4.878906 8.902344 4.882812 8.902344 4.886719 8.90625 C 4.890625 8.910156 4.890625 8.914062 4.890625 8.917969 L 4.890625 8.96875 C 4.890625 8.972656 4.890625 8.976562 4.886719 8.980469 C 4.882812 8.980469 4.878906 8.984375 4.875 8.984375 L 4.667969 8.984375 L 4.667969 9.082031 L 4.863281 9.082031 C 4.867188 9.082031 4.871094 9.085938 4.871094 9.085938 C 4.875 9.089844 4.875 9.09375 4.875 9.097656 L 4.875 9.144531 C 4.875 9.148438 4.875 9.152344 4.871094 9.15625 C 4.871094 9.160156 4.867188 9.160156 4.863281 9.160156 L 4.667969 9.160156 L 4.667969 9.261719 L 4.878906 9.261719 C 4.886719 9.261719 4.890625 9.265625 4.890625 9.265625 C 4.894531 9.269531 4.894531 9.273438 4.894531 9.277344 L 4.894531 9.328125 C 4.894531 9.332031 4.894531 9.335938 4.890625 9.339844 C 4.890625 9.34375 4.886719 9.34375 4.878906 9.34375 Z M 4.585938 9.34375 "/>
<path style=" stroke:none;fill-rule:nonzero;fill:rgb(0%,24.705882%,28.627451%);fill-opacity:1;" d="M 5.613281 9.34375 C 5.609375 9.34375 5.605469 9.34375 5.605469 9.339844 C 5.601562 9.335938 5.597656 9.332031 5.597656 9.328125 L 5.597656 9.289062 C 5.597656 9.289062 5.601562 9.28125 5.601562 9.277344 C 5.605469 9.269531 5.609375 9.265625 5.613281 9.257812 L 5.699219 9.175781 C 5.730469 9.152344 5.753906 9.132812 5.773438 9.117188 C 5.792969 9.101562 5.808594 9.085938 5.816406 9.074219 C 5.824219 9.058594 5.832031 9.046875 5.832031 9.03125 C 5.832031 9.015625 5.824219 9.003906 5.816406 8.992188 C 5.808594 8.980469 5.792969 8.976562 5.773438 8.976562 C 5.757812 8.976562 5.75 8.980469 5.738281 8.984375 C 5.730469 8.992188 5.722656 9 5.71875 9.007812 C 5.710938 9.015625 5.710938 9.027344 5.707031 9.035156 C 5.707031 9.042969 5.703125 9.046875 5.699219 9.050781 C 5.695312 9.050781 5.691406 9.050781 5.6875 9.050781 L 5.621094 9.050781 C 5.617188 9.050781 5.613281 9.050781 5.609375 9.046875 C 5.605469 9.046875 5.605469 9.042969 5.605469 9.039062 C 5.605469 9.019531 5.609375 9 5.617188 8.984375 C 5.625 8.964844 5.636719 8.949219 5.652344 8.9375 C 5.664062 8.921875 5.683594 8.914062 5.703125 8.90625 C 5.722656 8.898438 5.746094 8.894531 5.773438 8.894531 C 5.808594 8.894531 5.835938 8.898438 5.863281 8.910156 C 5.886719 8.921875 5.902344 8.9375 5.917969 8.957031 C 5.929688 8.980469 5.933594 9.003906 5.933594 9.027344 C 5.933594 9.050781 5.929688 9.070312 5.921875 9.085938 C 5.914062 9.101562 5.902344 9.121094 5.886719 9.136719 C 5.871094 9.152344 5.851562 9.167969 5.832031 9.183594 L 5.757812 9.257812 L 5.929688 9.257812 C 5.933594 9.257812 5.9375 9.261719 5.941406 9.265625 C 5.941406 9.265625 5.945312 9.269531 5.945312 9.273438 L 5.945312 9.328125 C 5.945312 9.332031 5.941406 9.335938 5.941406 9.339844 C 5.9375 9.34375 5.933594 9.34375 5.929688 9.34375 Z M 5.613281 9.34375 "/>
<path style=" stroke:none;fill-rule:nonzero;fill:rgb(0%,24.705882%,28.627451%);fill-opacity:1;" d="M 6.4375 9.351562 C 6.40625 9.351562 6.382812 9.347656 6.359375 9.339844 C 6.339844 9.328125 6.320312 9.316406 6.304688 9.300781 C 6.292969 9.285156 6.28125 9.269531 6.273438 9.25 C 6.265625 9.226562 6.261719 9.207031 6.261719 9.183594 C 6.261719 9.171875 6.261719 9.15625 6.261719 9.144531 C 6.261719 9.128906 6.261719 9.117188 6.261719 9.101562 C 6.261719 9.085938 6.261719 9.074219 6.261719 9.0625 C 6.261719 9.039062 6.265625 9.015625 6.273438 8.996094 C 6.28125 8.976562 6.292969 8.957031 6.308594 8.945312 C 6.320312 8.929688 6.339844 8.917969 6.359375 8.910156 C 6.382812 8.898438 6.410156 8.894531 6.4375 8.894531 C 6.46875 8.894531 6.492188 8.898438 6.515625 8.910156 C 6.535156 8.917969 6.554688 8.929688 6.570312 8.945312 C 6.582031 8.957031 6.59375 8.976562 6.601562 8.996094 C 6.609375 9.015625 6.613281 9.039062 6.613281 9.0625 C 6.613281 9.074219 6.613281 9.085938 6.613281 9.101562 C 6.617188 9.117188 6.617188 9.128906 6.613281 9.144531 C 6.613281 9.15625 6.613281 9.171875 6.613281 9.183594 C 6.613281 9.207031 6.609375 9.226562 6.601562 9.25 C 6.59375 9.269531 6.585938 9.285156 6.570312 9.300781 C 6.554688 9.316406 6.539062 9.328125 6.515625 9.339844 C 6.496094 9.347656 6.46875 9.351562 6.4375 9.351562 Z M 6.4375 9.269531 C 6.460938 9.269531 6.480469 9.261719 6.492188 9.246094 C 6.503906 9.226562 6.511719 9.207031 6.511719 9.179688 C 6.511719 9.167969 6.511719 9.15625 6.511719 9.140625 C 6.511719 9.128906 6.511719 9.117188 6.511719 9.101562 C 6.511719 9.089844 6.511719 9.078125 6.511719 9.066406 C 6.511719 9.039062 6.503906 9.015625 6.492188 9 C 6.480469 8.984375 6.460938 8.976562 6.4375 8.976562 C 6.414062 8.976562 6.394531 8.984375 6.382812 9 C 6.375 9.015625 6.367188 9.039062 6.367188 9.066406 C 6.367188 9.078125 6.367188 9.089844 6.367188 9.101562 C 6.367188 9.117188 6.367188 9.128906 6.367188 9.140625 C 6.367188 9.15625 6.367188 9.167969 6.367188 9.179688 C 6.367188 9.207031 6.375 9.226562 6.382812 9.246094 C 6.394531 9.261719 6.414062 9.269531 6.4375 9.269531 Z M 6.4375 9.269531 "/>
<path style=" stroke:none;fill-rule:nonzero;fill:rgb(0%,24.705882%,28.627451%);fill-opacity:1;" d="M 6.945312 9.34375 C 6.941406 9.34375 6.9375 9.34375 6.9375 9.339844 C 6.933594 9.335938 6.929688 9.332031 6.929688 9.328125 L 6.929688 9.289062 C 6.929688 9.289062 6.933594 9.28125 6.933594 9.277344 C 6.9375 9.269531 6.941406 9.265625 6.945312 9.257812 L 7.03125 9.175781 C 7.0625 9.152344 7.085938 9.132812 7.105469 9.117188 C 7.125 9.101562 7.140625 9.085938 7.148438 9.074219 C 7.15625 9.058594 7.164062 9.046875 7.164062 9.03125 C 7.164062 9.015625 7.15625 9.003906 7.148438 8.992188 C 7.140625 8.980469 7.125 8.976562 7.105469 8.976562 C 7.089844 8.976562 7.082031 8.980469 7.070312 8.984375 C 7.0625 8.992188 7.054688 9 7.050781 9.007812 C 7.042969 9.015625 7.042969 9.027344 7.039062 9.035156 C 7.039062 9.042969 7.035156 9.046875 7.03125 9.050781 C 7.027344 9.050781 7.023438 9.050781 7.019531 9.050781 L 6.953125 9.050781 C 6.949219 9.050781 6.945312 9.050781 6.941406 9.046875 C 6.9375 9.046875 6.9375 9.042969 6.9375 9.039062 C 6.9375 9.019531 6.941406 9 6.949219 8.984375 C 6.957031 8.964844 6.96875 8.949219 6.984375 8.9375 C 6.996094 8.921875 7.015625 8.914062 7.035156 8.90625 C 7.054688 8.898438 7.078125 8.894531 7.105469 8.894531 C 7.140625 8.894531 7.167969 8.898438 7.195312 8.910156 C 7.21875 8.921875 7.234375 8.9375 7.25 8.957031 C 7.261719 8.980469 7.265625 9.003906 7.265625 9.027344 C 7.265625 9.050781 7.261719 9.070312 7.253906 9.085938 C 7.246094 9.101562 7.234375 9.121094 7.21875 9.136719 C 7.203125 9.152344 7.183594 9.167969 7.164062 9.183594 L 7.089844 9.257812 L 7.261719 9.257812 C 7.265625 9.257812 7.269531 9.261719 7.273438 9.265625 C 7.273438 9.265625 7.277344 9.269531 7.277344 9.273438 L 7.277344 9.328125 C 7.277344 9.332031 7.273438 9.335938 7.273438 9.339844 C 7.269531 9.34375 7.265625 9.34375 7.261719 9.34375 Z M 6.945312 9.34375 "/>
<path style=" stroke:none;fill-rule:nonzero;fill:rgb(0%,24.705882%,28.627451%);fill-opacity:1;" d="M 7.808594 9.34375 C 7.804688 9.34375 7.800781 9.34375 7.796875 9.339844 C 7.792969 9.335938 7.792969 9.332031 7.792969 9.328125 L 7.792969 9.253906 L 7.59375 9.253906 C 7.589844 9.253906 7.585938 9.25 7.582031 9.25 C 7.578125 9.246094 7.578125 9.242188 7.578125 9.238281 L 7.578125 9.183594 C 7.578125 9.183594 7.578125 9.179688 7.578125 9.175781 C 7.582031 9.171875 7.582031 9.167969 7.585938 9.164062 L 7.769531 8.910156 C 7.773438 8.90625 7.785156 8.902344 7.792969 8.902344 L 7.875 8.902344 C 7.878906 8.902344 7.882812 8.902344 7.886719 8.90625 C 7.886719 8.910156 7.890625 8.914062 7.890625 8.917969 L 7.890625 9.167969 L 7.945312 9.167969 C 7.949219 9.167969 7.953125 9.167969 7.957031 9.171875 C 7.960938 9.175781 7.960938 9.179688 7.960938 9.183594 L 7.960938 9.238281 C 7.960938 9.242188 7.960938 9.246094 7.957031 9.25 C 7.953125 9.25 7.949219 9.253906 7.945312 9.253906 L 7.890625 9.253906 L 7.890625 9.328125 C 7.890625 9.332031 7.886719 9.335938 7.886719 9.339844 C 7.882812 9.34375 7.878906 9.34375 7.875 9.34375 Z M 7.675781 9.171875 L 7.792969 9.171875 L 7.792969 9.003906 Z M 7.675781 9.171875 "/>
</g>
</svg>
